 <!DOCTYPE svg PUBLIC "-//W3C//DTD SVG 1.1//EN" "http://www.w3.org/Graphics/SVG/1.1/DTD/svg11.dtd">
<svg id="f5ae76a7-47a3-482b-acb0-ad25500c6e85" data-name="Layer 1" xmlns="http://www.w3.org/2000/svg" width="865.76" height="682.89" viewBox="0 0 865.76 682.89">
<defs>
<style xmlns="http://www.w3.org/1999/xhtml">*, ::after, ::before { box-sizing: border-box; }
img, svg { vertical-align: middle; }
</style>
<style xmlns="http://www.w3.org/1999/xhtml">*, body, html { -webkit-font-smoothing: antialiased; }
img, svg { max-width: 100%; }
</style>
</defs>
<path d="M106.25,444.61c1,1.69,3.81,5.8,8,7a.06.06,0,0,0,.06-.09c-1.14-1.41-10.38-13.49,2.72-19.17a.46.46,0,0,1,.58.18c.66,1.06,2.84,4.32,5.2,5.07a.46.46,0,0,0,.54-.65c-1.44-3-5.44-13.7,8.16-16.08l12-1.06a2.16,2.16,0,0,1,2.18,1.3c2.35,5.56,9.75,25.33-4.09,24.82a.38.38,0,0,0-.39.49c.38,1.17,1.76,4,6.52,5.17a.4.4,0,0,1,.32.37c0,2.4-.19,18.28-14.71,12.21,0,0,.75,5.11,9.09,6.1a.42.42,0,0,1,.33.63c-1.66,2.86-10.11,15.06-28.95,6.31a20.42,20.42,0,0,1-10.36-10.58c-2.12-5.14-3-12.59,2.06-22A.47.47,0,0,1,106.25,444.61Z" fill="#195de6" data-primary="true"/>
<path d="M67.14,481.49c-1.35,1.3-4.91,4.39-8.65,4.7a.26.26,0,0,0-.21.4c1.66,2.47,12.08,16.28,32.16,4.59,0,0,16.14-10.23,4.75-30.86,0,0-.07-.05-.09,0-.41.66-3.46,5.43-7.49,6.68,0,0-.1,0-.07-.08.94-1.38,8.47-13.1-3.72-18.82a.89.89,0,0,0-1.16.39c-.78,1.44-2.67,4.49-5,4.79a.22.22,0,0,1-.22-.3c1-2.53,6.47-18.76-20.3-17.37a1,1,0,0,0-.8.48c-1.87,3.15-12.17,21.8,2.91,25.79a.5.5,0,0,1,.35.66c-.44,1.12-1.89,3.68-6.11,4.52a.91.91,0,0,0-.74.8c-.26,3.07-.43,15.29,14.1,13.2A.26.26,0,0,1,67.14,481.49Z" fill="#195de6" data-primary="true"/>
<rect x="86.78" y="525.72" width="31.98" height="56.49" fill="#8019e6" data-secondary="true"/>
<path d="M86.78,525.72v7.21s17.75.68,23.79,15a24.34,24.34,0,0,1,1.21,3.92l7,30.28h0V525.72Z" opacity="0.2"/>
<rect x="253.41" y="125.21" width="146.3" height="204.61" fill="#e6e7e8"/>
<rect x="260.18" y="132.5" width="133.28" height="184.82" fill="#195de6" opacity="0.43" data-primary="true"/>
<rect x="266.94" y="180.45" width="56.05" height="136.68" fill="#195de6" data-primary="true"/>
<rect x="271.67" y="186.21" width="46.67" height="10.93" fill="#fff" opacity="0.2"/>
<rect x="271.67" y="200.69" width="46.67" height="10.93" fill="#fff" opacity="0.2"/>
<rect x="271.62" y="215.17" width="46.67" height="10.93" fill="#fff" opacity="0.2"/>
<rect x="271.62" y="229.65" width="46.67" height="10.93" fill="#fff" opacity="0.2"/>
<rect x="271.65" y="246.51" width="46.67" height="10.93" fill="#fff" opacity="0.2"/>
<rect x="271.65" y="260.99" width="46.67" height="10.93" fill="#fff" opacity="0.2"/>
<rect x="271.6" y="275.47" width="46.67" height="10.93" fill="#fff" opacity="0.2"/>
<rect x="271.6" y="289.95" width="46.67" height="10.93" fill="#fff" opacity="0.2"/>
<rect x="271.6" y="305.85" width="46.67" height="10.93" fill="#fff" opacity="0.2"/>
<rect x="335.39" y="220.64" width="47.99" height="96.68" fill="#195de6" data-primary="true"/>
<rect x="339.29" y="224.91" width="11.12" height="11.12" fill="#fff" opacity="0.2"/>
<rect x="353.96" y="224.91" width="11.12" height="11.12" fill="#fff" opacity="0.2"/>
<rect x="368.1" y="224.91" width="11.12" height="11.12" fill="#fff" opacity="0.2"/>
<rect x="339.29" y="240.95" width="11.12" height="11.12" fill="#fff" opacity="0.2"/>
<rect x="353.96" y="240.95" width="11.12" height="11.12" fill="#fff" opacity="0.2"/>
<rect x="368.1" y="240.95" width="11.12" height="11.12" fill="#fff" opacity="0.2"/>
<rect x="339.29" y="255.4" width="11.12" height="11.12" fill="#fff" opacity="0.2"/>
<rect x="353.96" y="255.4" width="11.12" height="11.12" fill="#fff" opacity="0.2"/>
<rect x="368.1" y="255.4" width="11.12" height="11.12" fill="#fff" opacity="0.2"/>
<rect x="339.29" y="271.44" width="11.12" height="11.12" fill="#fff" opacity="0.2"/>
<rect x="353.96" y="271.44" width="11.12" height="11.12" fill="#fff" opacity="0.2"/>
<rect x="368.1" y="271.44" width="11.12" height="11.12" fill="#fff" opacity="0.2"/>
<rect x="339.29" y="286.4" width="11.12" height="11.12" fill="#fff" opacity="0.2"/>
<rect x="353.96" y="286.4" width="11.12" height="11.12" fill="#fff" opacity="0.2"/>
<rect x="368.1" y="286.4" width="11.12" height="11.12" fill="#fff" opacity="0.2"/>
<rect x="339.29" y="302.44" width="11.12" height="11.12" fill="#fff" opacity="0.2"/>
<rect x="353.96" y="302.44" width="11.12" height="11.12" fill="#fff" opacity="0.2"/>
<rect x="368.1" y="302.44" width="11.12" height="11.12" fill="#fff" opacity="0.2"/>
<polygon points="693.24 509.59 245.58 509.59 249.54 492.39 689.93 492.39 693.24 509.59" fill="#195de6" data-primary="true"/>
<rect x="245.58" y="515.97" width="446.6" height="4.53" fill="#195de6" data-primary="true"/>
<polygon points="257.49 473.72 240.82 554.99 236.36 553.91 233.66 553.26 249.36 473.72 257.49 473.72" fill="#195de6" data-primary="true"/>
<polygon points="257.49 473.72 240.82 554.99 236.36 553.91 251.69 473.72 257.49 473.72" opacity="0.2"/>
<circle cx="232.62" cy="568.94" r="18.86" fill="#8019e6" data-secondary="true"/>
<circle cx="233.01" cy="569.04" r="10.91" opacity="0.2"/>
<circle cx="232.08" cy="568.61" r="3.29" opacity="0.2"/>
<rect x="288.75" y="302.84" width="369.24" height="8.37" fill="#195de6" data-primary="true"/>
<rect x="288.75" y="302.84" width="369.24" height="8.37" fill="#fff" opacity="0.2"/>
<rect x="318.35" y="307.03" width="9.27" height="66.75" fill="#195de6" data-primary="true"/>
<rect x="318.35" y="307.03" width="9.27" height="66.75" fill="#fff" opacity="0.2"/>
<rect x="381.31" y="310.5" width="8.76" height="63.28" fill="#195de6" data-primary="true"/>
<rect x="381.31" y="310.5" width="8.76" height="63.28" fill="#fff" opacity="0.2"/>
<path d="M532.86,342.57a91.55,91.55,0,0,1,21.7-18.5,5.17,5.17,0,0,0,2-2.29l13.22-29.71,9.4,7.36s4,21.38-7.11,32.11c-.37.35-1.36.41-1.78.69-1.87,1.22-7.19,5-4.89,7,0,0-10.42.61-15.08,3.35Z" fill="#f9b499"/>
<path d="M544.93,342.57h23.72L588.5,309l-8.58-12.08a61.78,61.78,0,0,1-14.61,30.69A61.15,61.15,0,0,1,544.93,342.57Z" fill="#f7a48b"/>
<polygon points="704.09 550.84 701.33 551.51 696.95 552.57 680.26 473.72 688.4 473.72 704.09 550.84" fill="#195de6" data-primary="true"/>
<polygon points="704.09 550.84 701.33 551.51 684.57 473.72 688.4 473.72 704.09 550.84" opacity="0.2"/>
<path d="M768.41,236.37v229a12.13,12.13,0,0,1-12.13,12.13H190.88a7.62,7.62,0,0,1-7.62-7.62V303.18a23,23,0,0,1,23.05-23h12.8a22.05,22.05,0,0,1,2.31.12,23.06,23.06,0,0,1,20.73,22.92V427.94H709.54V236.37A25.42,25.42,0,0,1,735,211h8a25,25,0,0,1,5.71.65h0A25.41,25.41,0,0,1,768.41,236.37Z" fill="#195de6" data-primary="true"/>
<path d="M768.41,236.37v229a12.13,12.13,0,0,1-12.13,12.13H190.88a7.62,7.62,0,0,1-7.62-7.62v-3.32H751.13a4.48,4.48,0,0,0,4.48-4.48V243.2c0-26.38-6.47-31.3-6.87-31.58A25.41,25.41,0,0,1,768.41,236.37Z" opacity="0.2"/>
<path d="M242.15,303.18v124H228.34V303.1c.53-18.47-6.92-22.84-6.92-22.84A23.06,23.06,0,0,1,242.15,303.18Z" opacity="0.2"/>
<polygon points="709.54 276.43 654.52 376.95 709.54 376.95 709.54 381.71 644.99 381.71 709.54 263 709.54 276.43" fill="#8019e6" data-secondary="true"/>
<polygon points="709.54 276.43 654.52 376.95 709.54 376.95 709.54 381.71 644.99 381.71 709.54 263 709.54 276.43" opacity="0.2"/>
<path d="M709.54,250.87s-5.13-16.16-23.18-10.62a12.32,12.32,0,0,0-7.14,5.9L614.66,363.91l-18.35,22.37H242.15v25.79H668.06a28.77,28.77,0,0,0,28.77-28.77v-1.59H645L709.54,263Z" fill="#8019e6" data-secondary="true"/>
<path d="M611.2,427.16l-369.05.78V342.57H557.76c27.51,0,53.44,21.53,53.44,49Z" fill="#e6e7e8"/>
<path d="M242.15,342.57v85.37l330-.7L295.58,415.52S246.54,412.23,242.15,342.57Z" fill="#d1d3d4"/>
<rect x="318.35" y="361.41" width="9.27" height="66.75" fill="#195de6" data-primary="true"/>
<rect x="318.35" y="361.41" width="9.27" height="66.75" fill="#fff" opacity="0.2"/>
<rect x="381.31" y="364.88" width="8.76" height="63.28" fill="#195de6" data-primary="true"/>
<rect x="381.31" y="364.88" width="8.76" height="63.28" fill="#fff" opacity="0.2"/>
<rect x="567.72" y="364.88" width="8.76" height="63.28" fill="#195de6" data-primary="true"/>
<rect x="567.72" y="364.88" width="8.76" height="63.28" fill="#fff" opacity="0.2"/>
<rect x="628.88" y="364.88" width="8.76" height="63.28" fill="#195de6" data-primary="true"/>
<rect x="628.88" y="364.88" width="8.76" height="63.28" fill="#fff" opacity="0.2"/>
<path d="M658,317.13H628.88v22.09H565.43c-2.42-2,3.59-6.14,5.15-7.15a6.24,6.24,0,0,0,.72-.55c9.93-9,7.91-32.09,7.91-32.09l-12.9-10.11a1.27,1.27,0,0,1-.32-1.65l15.85-27.06a43.61,43.61,0,0,1,18.51-19.07l19.11-2.45C665.22,244.94,658,317.13,658,317.13Z" fill="#195de6" data-primary="true"/>
<path d="M658,317.13h-6.17c6-71.23-32.36-78-32.36-78C665.22,244.94,658,317.13,658,317.13Z" opacity="0.2"/>
<path d="M579.21,299.43,577,297.68s2-27.32,9.08-34.68A134.36,134.36,0,0,0,579.21,299.43Z" opacity="0.2"/>
<rect x="484.09" y="95.09" width="75.33" height="120.05" fill="#195de6" data-primary="true"/>
<rect x="488.92" y="99.93" width="66.47" height="110.03" fill="#fff"/>
<rect x="539.44" y="97.62" width="1.16" height="64.97" fill="#195de6" data-primary="true"/>
<rect x="546.63" y="97.62" width="1.16" height="39.93" fill="#195de6" data-primary="true"/>
<rect x="532" y="97.62" width="1.16" height="47.41" fill="#195de6" data-primary="true"/>
<rect x="507.08" y="147.96" width="1.16" height="64.97" fill="#195de6" data-primary="true"/>
<rect x="514.64" y="173.59" width="1.16" height="39.93" fill="#195de6" data-primary="true"/>
<rect x="499.51" y="165.28" width="1.16" height="47.41" fill="#195de6" data-primary="true"/>
<rect x="84.69" y="522.45" width="36.17" height="6.55" fill="#8019e6" data-secondary="true"/>
<path d="M102.45,522.46l-1.16,0a47,47,0,0,0-3.22-18.33A40.71,40.71,0,0,0,87.34,489a67,67,0,0,1-20.2-32.85l1.13-.23A65.92,65.92,0,0,0,88.11,488.1a41.81,41.81,0,0,1,11,15.58A48.17,48.17,0,0,1,102.45,522.46Z" fill="#8019e6" data-secondary="true"/>
<path d="M102.2,522.47l-.9-19.76c-.19-26.33,16-38.71,16.12-38.83,13.19-10.28,19.39-31.66,19.45-31.88l1.11.32c-.06.22-6.36,22-19.86,32.48-.17.12-15.85,12.18-15.66,37.88l.89,19.74Z" fill="#8019e6" data-secondary="true"/>
<rect x="691.21" y="117.59" width="1.16" height="40.96" fill="#d1d3d4"/>
<path d="M619.76,213.38C618,227,608.67,237.11,599.3,235.89s-15.55-13.2-13.79-26.78,10.78-23.59,20.16-22.38S621.52,199.8,619.76,213.38Z" fill="#f9b499"/>
<path d="M589.43,197s-3.64,6.55-3.92,12.09c0,0-5.09-3.65-3.28-14.37a16,16,0,0,1,6.52-10.54c4.26-3,11.34-5.67,21.94-3.39,0,0,21.37,1,20.45,23.27,0,0-3,21.14,2.76,25.5,0,0,8.86,10.17,1,15a37.71,37.71,0,0,0-15.48-5.48l-6.31-9.94s4.27-3.19,6.65-17.74a7.36,7.36,0,0,0-1.13-5.39,4.63,4.63,0,0,0-5.82-1.75s-4.23,1.65-3.77,7.85c0,0-.69,9.18-3.45,10.56,0,0,.92-10.11-4.82-13.1C600.81,209.59,590.46,206.73,589.43,197Z" fill="#8019e6" data-secondary="true"/>
<path d="M599.3,235.89l2.2,10.93s.54,5.28,8.54,0l9.42-7.72-6.31-9.94S607.66,236.68,599.3,235.89Z" fill="#f9b499"/>
<path d="M599.3,235.89l1.45,7.22a20,20,0,0,0,12.4-14S607.66,236.68,599.3,235.89Z" fill="#f7a48b"/>
<ellipse cx="615.44" cy="207.87" rx="3.81" ry="5.51" fill="#f9b499"/>
<path d="M656.64,317.13s-2.75,36.3-9.42,40.1H589.78a75.36,75.36,0,0,1-17.69-5.41s-1.13,3.22-7.23,5.41H540.6s.71-18,24.83-18h63.45V317.13Z" fill="#f9b499"/>
<path d="M601.29,357.23H589.78a75.36,75.36,0,0,1-17.69-5.41s-1.13,3.22-7.23,5.41H540.6s27.12-1.5,29.87-8.39C570.47,348.84,587.37,356.37,601.29,357.23Z" fill="#f7a48b"/>
<path d="M656.64,317.13s-2.54,33.55-8.66,39.52a.3.3,0,0,1-.48-.31c4.76-15.54,4.32-39.21,4.32-39.21Z" fill="#f7a48b"/>
<rect x="288.75" y="357.22" width="369.24" height="8.37" fill="#195de6" data-primary="true"/>
<rect x="288.75" y="357.22" width="369.24" height="8.37" fill="#fff" opacity="0.2"/>
<ellipse cx="288.75" cy="360.5" rx="8.32" ry="9.78" fill="#195de6" data-primary="true"/>
<ellipse cx="288.75" cy="360.5" rx="8.32" ry="9.78" fill="#fff" opacity="0.2"/>
<ellipse cx="658.81" cy="360.5" rx="8.32" ry="9.78" fill="#195de6" data-primary="true"/>
<ellipse cx="658.81" cy="360.5" rx="8.32" ry="9.78" fill="#fff" opacity="0.2"/>
<ellipse cx="288.75" cy="306.12" rx="8.32" ry="9.78" fill="#195de6" data-primary="true"/>
<ellipse cx="288.75" cy="306.12" rx="8.32" ry="9.78" fill="#fff" opacity="0.2"/>
<polygon points="260.18 170.78 260.18 200.69 368.1 132.5 322.99 132.5 260.18 170.78" fill="#fff" opacity="0.2"/>
<polygon points="260.18 239.09 260.18 275.47 393.46 191.67 393.46 154.94 260.18 239.09" fill="#fff" opacity="0.2"/>
<polygon points="393.46 255.4 393.46 227.52 260.18 310.5 260.18 317.32 297.06 317.32 393.46 255.4" fill="#fff" opacity="0.2"/>
<circle cx="540.02" cy="165.2" r="5.58" fill="#195de6" data-primary="true"/>
<circle cx="547.21" cy="139.49" r="3.72" fill="#195de6" data-primary="true"/>
<circle cx="532.58" cy="146.97" r="3.72" fill="#195de6" data-primary="true"/>
<circle cx="507.66" cy="145.36" r="5.58" fill="#195de6" data-primary="true"/>
<circle cx="515.22" cy="171.64" r="3.72" fill="#195de6" data-primary="true"/>
<circle cx="500.09" cy="163.34" r="3.72" fill="#195de6" data-primary="true"/>
<circle cx="700.81" cy="568.61" r="18.86" fill="#8019e6" data-secondary="true"/>
<circle cx="701.2" cy="568.71" r="10.91" opacity="0.2"/>
<circle cx="700.27" cy="568.27" r="3.29" opacity="0.2"/>
<path d="M706.34,577.23h82.27a2.79,2.79,0,0,1,2.79,2.79v2.17a0,0,0,0,1,0,0H703.55a0,0,0,0,1,0,0V580a2.79,2.79,0,0,1,2.79-2.79Z" fill="#d1d3d4"/>
<rect x="744.2" y="148.21" width="7.27" height="431.41" fill="#d1d3d4"/>
<path d="M738.37,135.24H757.3a0,0,0,0,1,0,0v13.19a2.65,2.65,0,0,1-2.65,2.65H741a2.65,2.65,0,0,1-2.65-2.65V135.24A0,0,0,0,1,738.37,135.24Z" fill="#bcbec0"/>
<path d="M684.68,120.6h11.66s1,17.16,16,20a21.57,21.57,0,0,0,4.09.33h64.36a21.33,21.33,0,0,0,13.45-4.58c3.7-3,7.11-7.87,7.54-15.76h8.1a4.63,4.63,0,0,0,4.63-4.63h0a4.63,4.63,0,0,0-4.63-4.63h-13a1.74,1.74,0,0,0-1.73,1.74v7.35a7.17,7.17,0,0,1-.71,3.13c-1.5,3.13-5.48,9.69-12.52,9.94H717.71a14.33,14.33,0,0,1-14.6-12.4v-6.28a1.33,1.33,0,0,0-1.32-1.33H684.68a3.56,3.56,0,0,0-3.55,3.56h0A3.55,3.55,0,0,0,684.68,120.6Z" fill="#d1d3d4"/>
<path d="M617.18,419.08a13.56,13.56,0,0,1-6.66-1.79c-11.7-6.52-18.28-29.13-21.16-42A55.37,55.37,0,0,0,574.58,348a36.19,36.19,0,0,0-2.85-2.63l.73-.91a39.71,39.71,0,0,1,2.94,2.72A56.52,56.52,0,0,1,590.49,375c2.29,10.23,8.87,34.73,20.6,41.27a12.39,12.39,0,0,0,10.49.86l.11,0h.11c.34,0,15.66-.48,41.11-51.77.06-.13,6.74-14.9,14.25-25.12a17.64,17.64,0,0,0,3.15-13.32c-1.13-6.65-2.67-15.84-3.62-21.87,0-.14-5-19.88.17-37.09a37.93,37.93,0,0,1,7.36-13.16c3.56-4.25,9.42-13.56,8.72-28.18l-1.62-20.86,1.16-.09,1.62,20.88c.71,15-5.32,24.61-9,29A36.61,36.61,0,0,0,678,268.28c-5.12,16.89-.19,36.32-.14,36.51.95,6.08,2.49,15.27,3.62,21.92a18.8,18.8,0,0,1-3.36,14.2C670.66,351,664,365.69,664,365.83c-25.19,50.75-40.47,52.41-42.09,52.44A14.56,14.56,0,0,1,617.18,419.08Z" fill="#e6e7e8"/>
<path d="M686.43,199.81h9.4a0,0,0,0,1,0,0v6.4a1.66,1.66,0,0,1-1.66,1.66h-6.09a1.66,1.66,0,0,1-1.66-1.66v-6.4A0,0,0,0,1,686.43,199.81Z" fill="#d1d3d4"/>
<rect x="678.15" y="158.55" width="27.28" height="43.94" rx="3.33" fill="#e6e7e8"/>
<rect x="675.88" y="174.86" width="32.05" height="11.9" fill="#195de6" data-primary="true"/>
<rect x="675.76" y="188.48" width="32.05" height="1.73" fill="#195de6" data-primary="true"/>
<rect x="675.76" y="171.41" width="32.05" height="1.73" fill="#195de6" data-primary="true"/>
<polygon points="567.72 345.44 570.47 348.84 576.48 344.23 573.79 341.07 567.72 345.44" fill="#e6e7e8"/>
</svg>