 <!DOCTYPE svg PUBLIC "-//W3C//DTD SVG 1.1//EN" "http://www.w3.org/Graphics/SVG/1.1/DTD/svg11.dtd">
<svg id="a9612c16-a065-4515-b2c8-4a291331783d" data-name="Layer 1" xmlns="http://www.w3.org/2000/svg" width="865.76" height="682.89" viewBox="0 0 865.76 682.89">
<defs>
<style xmlns="http://www.w3.org/1999/xhtml">*, ::after, ::before { box-sizing: border-box; }
img, svg { vertical-align: middle; }
</style>
<style xmlns="http://www.w3.org/1999/xhtml">*, body, html { -webkit-font-smoothing: antialiased; }
img, svg { max-width: 100%; }
</style>
</defs>
<g id="afff29eb-29b8-4c6f-82c7-bbacdf513207" data-name="freepik--background-complete--inject-20">
<rect x="14.81" y="574.41" width="836.14" height="0.42" fill="#ebebeb"/>
<rect x="122.96" y="590.33" width="34.97" height="0.42" fill="#ebebeb"/>
<rect x="301.01" y="585.8" width="40.45" height="0.42" fill="#ebebeb"/>
<rect x="213.49" y="595.79" width="32.09" height="0.42" fill="#ebebeb"/>
<rect x="720.52" y="603.06" width="46.66" height="0.42" fill="#ebebeb"/>
<rect x="663.17" y="590.75" width="36.17" height="0.42" fill="#ebebeb"/>
<rect x="478.38" y="596" width="81.02" height="0.42" fill="#ebebeb"/>
<path d="M411.14,499.83H88.24a9.54,9.54,0,0,1-9.53-9.55V36.37a9.55,9.55,0,0,1,9.53-9.46h322.9a9.54,9.54,0,0,1,9.55,9.55h0V490.28A9.54,9.54,0,0,1,411.14,499.83ZM88.24,27.24a9.13,9.13,0,0,0-9.11,9.13V490.28a9.12,9.12,0,0,0,9.11,9.13h322.9a9.15,9.15,0,0,0,9.13-9.13V36.37a9.15,9.15,0,0,0-9.13-9.13Z" fill="#ebebeb"/>
<path d="M772.87,499.83H450a9.57,9.57,0,0,1-9.55-9.55V36.37A9.56,9.56,0,0,1,450,26.91H772.87a9.55,9.55,0,0,1,9.52,9.46V490.28A9.55,9.55,0,0,1,772.87,499.83ZM450,27.24a9.14,9.14,0,0,0-9.13,9.13V490.28a9.14,9.14,0,0,0,9.13,9.13H772.87a9.15,9.15,0,0,0,9.14-9.13V36.37a9.15,9.15,0,0,0-9.14-9.13Z" fill="#ebebeb"/>
<path d="M119.6,158h127a10.87,10.87,0,0,0-8.52-6.24c-20.06-3.51-1.43-14.2-21.35-14.2-20.75,0-30.52,17.16-46.83,14.5C150.27,148.83,134,147.78,119.6,158Z" fill="#f5f5f5"/>
<path d="M518.9,81.41H620.3a8.61,8.61,0,0,0-6.79-5c-16-2.81-1.14-11.35-17.06-11.35-16.57,0-24.38,13.71-37.34,11.58C543.37,74.1,530.38,73.25,518.9,81.41Z" fill="#f5f5f5"/>
<path d="M486.58,234.81H280S300.32,222,316,225s36.42-9.13,62.49-6.69,17.33,9.93,33.62,8,20.21-9,41.17-11.7C473.2,212.25,498.75,224.52,486.58,234.81Z" fill="#f5f5f5"/>
<path d="M679.66,273.5H576.36s10.17-6.38,18-4.9,18.21-4.56,31.26-3.34,8.66,5,16.8,4,10-4.46,20.59-5.8C673,262.23,685.75,268.37,679.66,273.5Z" fill="#f5f5f5"/>
</g>
<g id="bb94482a-58b6-406c-95db-508046b564db" data-name="freepik--Shadow--inject-20">
<ellipse id="b54af4bf-24fa-44f0-bc63-96fbba32e800" data-name="freepik--path--inject-20" cx="432.88" cy="637.05" rx="324.24" ry="18.93" fill="#f5f5f5"/>
</g>
<circle cx="525.34" cy="518.44" r="41.81" fill="#d1d3d4"/>
<path d="M173.36,503.81C245.4,522,268.68,473,327,464.39c129.4-19,215.17,110,215.17,110H52.54S101.32,485.6,173.36,503.81Z" fill="#ccc"/>
<path d="M803.7,574.41H408.28s68.57-41,127.35-43.59S650.16,555.72,724,552,803.7,574.41,803.7,574.41Z" fill="#ccc"/>
<path d="M196.47,418.22S332.39,429,500.07,429,803.7,418.22,803.7,418.22s-136-10.77-303.63-10.77S196.47,418.22,196.47,418.22Z" fill="#407bff" opacity="0.15" style="isolation:isolate"/>
<path d="M103.44,387.2s88.25,8.56,197.1,8.56,197.08-8.56,197.08-8.56-88.23-8.56-197.08-8.56S103.44,387.2,103.44,387.2Z" fill="#407bff" opacity="0.14" style="isolation:isolate"/>
<path d="M376.19,171.19s88.25,8.56,197.16,8.56,197.08-8.56,197.08-8.56-88.23-8.56-197.08-8.56S376.19,171.19,376.19,171.19Z" fill="#407bff" opacity="0.1" style="isolation:isolate"/>
<path d="M676.5,351s-86.39,6.86-193,6.86-193-6.86-193-6.86,86.39-6.84,193-6.84S676.5,351,676.5,351Z" fill="#407bff" opacity="0.13" style="isolation:isolate"/>
<path d="M745.6,317.89s-56.07,5.45-125.25,5.45-125.26-5.45-125.26-5.45,56.09-5.44,125.26-5.44S745.6,317.89,745.6,317.89Z" fill="#407bff" opacity="0.12" style="isolation:isolate"/>
<path d="M381.56,274.94s-56.09,5.44-125.25,5.44-125.26-5.44-125.26-5.44,56.07-5.45,125.26-5.45S381.56,274.94,381.56,274.94Z" fill="#407bff" opacity="0.11" style="isolation:isolate"/>
<polygon points="397.6 625.7 411.86 613.21 388.1 577.99 371.27 586.69 397.6 625.7" fill="#f9b499"/>
<path d="M409.9,608.7l-22.45.1a1.67,1.67,0,0,0-1.68,1.37l-2.47,17.77a3.2,3.2,0,0,0,2.86,3.53,2.23,2.23,0,0,0,.37,0c7.82-.17,10.58-.35,20.45-.4,6.09,0,19.78.7,28.16.67s8.68-8.82,5.18-9.53c-15.68-3.35-21.87-7.91-27.15-12.33A5.2,5.2,0,0,0,409.9,608.7Z" fill="#195de6" data-primary="true"/>
<path d="M278.13,582.24C286,556,331.93,474.85,358.6,523.71c29.36,53.73,37.66,63,37.66,63L378.63,599.5s-27.54-14-35.73-38.7c-15.27,25.71-16.14,78-62.08,79-54,1.21-64.72-26.2-61.87-51.44Z" fill="#8019e6" data-secondary="true"/>
<g opacity="0.2">
<path d="M278.13,582.24C286,556,331.93,474.85,358.6,523.71c29.36,53.73,37.66,63,37.66,63L378.63,599.5s-27.54-14-35.73-38.7c-15.27,25.71-16.14,78-62.08,79-54,1.21-64.72-26.2-61.87-51.44Z"/>
</g>
<polygon points="376.02 604.55 401.29 589.4 398.32 580.22 369.42 596.22 376.02 604.55" fill="#8019e6" data-secondary="true"/>
<path d="M308,464.6c4.48,1.42,9.32,3,14,4.43l14.28,4.31q14.29,4.25,28.73,8.13l3.61.95,1.81.49,1.18.3a24.24,24.24,0,0,0,5.24.43,45.65,45.65,0,0,0,12.34-2.44,100.58,100.58,0,0,0,12.88-5.37c2.12-1.08,4.28-2.15,6.4-3.34s4.25-2.46,6.15-3.61l6.88,8c-2,2.09-3.83,3.85-5.84,5.64s-4.05,3.51-6.2,5.11a88.11,88.11,0,0,1-13.93,8.72,71.19,71.19,0,0,1-8,3.34,52.11,52.11,0,0,1-8.87,2.14,38,38,0,0,1-9.88.2l-2.54-.37-1.89-.36-3.8-.72c-10-2-20.07-4.27-30-6.86-5-1.34-9.93-2.68-14.85-4.2s-9.76-3-14.83-4.88Z" fill="#f9b499"/>
<path d="M284.18,451.18c14.17-.51,35.87,14.87,35.87,14.87l-3.24,29.88s-37.36-7.76-41.81-18.39C270.44,466.49,271.29,451.67,284.18,451.18Z" fill="#195de6" data-primary="true"/>
<path d="M418.22,465.8l8.36-4.65,1.67,14.15s-10.6,11.15-16.72,4.15l.73-4.85A12.35,12.35,0,0,1,418.22,465.8Z" fill="#f9b499"/>
<path d="M219.5,417.84c4.1,11.89,9,29.36,1.57,38.71a274.24,274.24,0,0,0,43,46.44c14.67-34-5-51.74-5-51.74-14.1-1.35-14.52-6.92-13.46-16.72Z" fill="#f9b499"/>
<path d="M213.81,461.15a15.54,15.54,0,0,1,5-8.83c2.51-2.42,31-6,38.68-4.46a18.78,18.78,0,0,1,11.3,7Z" fill="#195de6" data-primary="true"/>
<path d="M207.12,493.34c-1.3,5.17-2.72,10.64-3.94,16s-2.5,10.78-3.68,16.17-2.23,10.8-3.25,16.2-1.84,10.8-2.57,16.19V556c.45,5.85.75,11.7,1.07,17.49s.5,11.7.72,17.46.31,11.7.38,17.47,0,11.71,0,17.49l-10.5.87c-1.1-5.72-2-11.45-3-17.17s-1.84-11.47-2.72-17.21l-2.51-17.19-2.44-17.14v-1.92c.38-5.87.88-11.71,1.67-17.48s1.57-11.52,2.62-17.21,2.18-11.35,3.47-17,2.66-11.17,4.36-16.9Z" fill="#f9b499"/>
<path d="M194.81,463.93c-8.16,3.76-16.72,34.68-16.72,34.68L209,515.68s13-24,9-34.61C213.81,470.06,204.13,459.65,194.81,463.93Z" fill="#195de6" data-primary="true"/>
<path d="M197.74,499.2a49,49,0,0,0-4,8L209,515.6a110.26,110.26,0,0,0,8.24-20.25C211.05,491.59,203.49,490.78,197.74,499.2Z" opacity="0.2" style="isolation:isolate"/>
<path d="M195.77,620.74l-6.17-2.51-11.36-2a11.51,11.51,0,0,0-7.44,1.19l-4.53,2.46a12.79,12.79,0,0,0-6.19,7.71l-1.14,4,21.63-.31S201.6,634.43,195.77,620.74Z" fill="#f9b499"/>
<path d="M297.94,459.81c2.73,12.16,5.89,42.4,4.2,117.55l-83.61,11.7c-3.16-32.27-5.91-52.77-28-111.59a11.5,11.5,0,0,1,6.73-14.81c.23-.09.46-.17.7-.24a224.64,224.64,0,0,1,23.16-5.8c14-2.64,25.45-4.7,38-5.3,10.31-.5,21.58-.22,28.62,0A10.92,10.92,0,0,1,297.94,459.81Z" fill="#195de6" data-primary="true"/>
<path d="M234.25,399.29a15.08,15.08,0,0,0,8.24,8c4.94,1.94,7.93-2.34,7-7.28-.82-4.43-4.4-10.77-9.55-10.6S232.36,394.81,234.25,399.29Z" fill="#f9b499"/>
<polygon points="463.82 623.1 478.95 608.14 449.22 571.3 430.89 582.29 463.82 623.1" fill="#f9b499"/>
<path d="M476,603.33l-19.33,13.13a1.66,1.66,0,0,0-.59,2.1l8.19,16.73a3.35,3.35,0,0,0,4.53,1.37l.31-.19c6.69-4.7,8.94-6.45,17.44-12.22,5.23-3.56,17.49-10.87,24.72-15.77s2.37-12.64-1.07-11.26c-15.46,6.28-23.42,5.87-30.62,5.14A5.49,5.49,0,0,0,476,603.33Z" fill="#195de6" data-primary="true"/>
<path d="M302.14,577.36c12.54-27.24,83.72-114.34,113.4-64.84,28.28,47.2,47.93,68.17,47.93,68.17L438.7,594.88s-40.13-27.74-49.48-52.19C366.69,569.88,342.58,642,284,642c-72.7,0-71.26-28.2-65.57-54Z" fill="#8019e6" data-secondary="true"/>
<polygon points="438.2 600.74 465.83 582.69 462.11 572.56 430.46 591.67 438.2 600.74" fill="#8019e6" data-secondary="true"/>
<path d="M438.07,464.28v5.23a3.67,3.67,0,0,1-2.58,3.53l-7.31,2.26-1.67-14.15,7.58-.48a3.64,3.64,0,0,1,4,3.29C438.06,464.07,438.07,464.17,438.07,464.28Z" fill="#f9b499"/>
<path d="M245.64,434.53a50.56,50.56,0,0,0-.34,6.19s-8.94-.59-14.4-6.84C230.9,433.88,239.21,436.75,245.64,434.53Z" fill="#f4a48e"/>
<path d="M255.07,374.07a1,1,0,0,0,.21-.95,1,1,0,0,0-1.23-.65,9.75,9.75,0,0,0-6.54,6.17,1,1,0,0,0,1.84.72,1.21,1.21,0,0,0,.05-.18,7.8,7.8,0,0,1,5.23-4.82A.92.92,0,0,0,255.07,374.07Z" fill="#8019e6" data-secondary="true"/>
<path d="M199.6,398.67c7.44,19.25,10.17,27.56,23.28,34.5,19.73,10.44,41.8-2.89,40.23-24-1.37-19-13.29-47.29-35-49a28.15,28.15,0,0,0-28.53,38.49Z" fill="#f9b499"/>
<path d="M241.64,396.62c9.5-21.63,16.62-25.54,6.55-35s-34.55-7.61-48.83,0-19.51,22.72-11.7,42.69c6,15.38,26.55,26.86,35.7,31.34a6.11,6.11,0,0,0,7.54-1.77C236.61,426.35,247.71,409.24,241.64,396.62Z" fill="#8019e6" data-secondary="true"/>
<path d="M207.49,359.21c-4.43-13-.8-44.22-33.7-33.83s-9.18,47.12,21.58,55.18C195.42,380.63,211.82,371.88,207.49,359.21Z" fill="#8019e6" data-secondary="true"/>
<path d="M186.94,381.93a18.11,18.11,0,0,1-5-.7c-11.17-3.19-18.39-15.33-19.41-32.49l1.67-.1c.94,16.37,7.71,27.93,18.13,30.9,6,1.68,12.17-.1,15.28-4.53l1.44,1A14.67,14.67,0,0,1,186.94,381.93Z" fill="#8019e6" data-secondary="true"/>
<path d="M252,413.62l-1.68-.26c1.94-12.55-1.78-21.43-10.51-25-9.4-3.83-21.33-.33-25.31,5.24l-1.42-1c4.35-6.09,17.26-9.95,27.38-5.84C246,389,254.82,395.51,252,413.62Z" fill="#8019e6" data-secondary="true"/>
<path d="M225.3,402.92l-1.32-.1c.45-5.67,7.34-13.24,15.54-14.51,4.49-.71,12.8,0,18.06,12.94l-1.22.5c-3.65-8.93-9.55-13.24-16.64-12.14C232.11,390.8,225.72,397.74,225.3,402.92Z" fill="#8019e6" data-secondary="true"/>
</svg>