 <!DOCTYPE svg PUBLIC "-//W3C//DTD SVG 1.1//EN" "http://www.w3.org/Graphics/SVG/1.1/DTD/svg11.dtd">
<svg xmlns="http://www.w3.org/2000/svg" width="865.76" height="682.89" viewBox="0 0 865.76 682.89">
<defs>
<style xmlns="http://www.w3.org/1999/xhtml">*, ::after, ::before { box-sizing: border-box; }
img, svg { vertical-align: middle; }
</style>
<style xmlns="http://www.w3.org/1999/xhtml">*, body, html { -webkit-font-smoothing: antialiased; }
img, svg { max-width: 100%; }
</style>
</defs>
<rect x="422.63" y="558.24" width="111.21" height="97.81" fill="#f5f5f5"/>
<rect x="471.49" y="558.24" width="13.49" height="97.81" fill="#ececec"/>
<path d="M442.88,546.94s9.21-17.15,12.95-17.14c0,0,13.07,5.8,20.35,24.34l6.46,0s3.59-14.79,20.95-22.74c0,0,9.65,17.86,10,17.69s-8.35,8.48-22.29,9-34.15-.95-34.15-.95S444.91,551.88,442.88,546.94Z" fill="#ececec"/>
<path d="M486,556.59s14.67-8.24,26.43-7.32C512.39,549.27,498.61,560.6,486,556.59Z" fill="#e1e1e1"/>
<path d="M444.31,546.85s18.84,1.27,28.59,10.39C472.9,557.24,454.86,559.13,444.31,546.85Z" fill="#e1e1e1"/>
<rect x="599.99" y="517.33" width="97.81" height="141.02" fill="#f5f5f5"/>
<rect x="643.51" y="518.87" width="13.49" height="139.48" fill="#ececec"/>
<path d="M613.54,508s9.21-17.15,13-17.15c0,0,13.07,5.81,20.35,24.35h6.46s3.59-14.78,20.94-22.74c0,0,9.66,17.87,10,17.7s-8.36,8.47-22.29,9.05-34.15-1-34.15-1S615.57,512.92,613.54,508Z" fill="#ececec"/>
<path d="M656.62,517.64s14.67-8.25,26.43-7.33C683.05,510.31,669.27,521.65,656.62,517.64Z" fill="#e1e1e1"/>
<path d="M615,507.89s18.84,1.27,28.59,10.39C643.56,518.28,625.52,520.17,615,507.89Z" fill="#e1e1e1"/>
<path d="M492.14,360c-6.69-6.09-17.05-8.18-25.22-4.29a19.9,19.9,0,0,0-11,19.15A19.9,19.9,0,0,0,436.69,364c-9,.79-16.86,7.86-19.53,16.51s-.48,18.39,4.83,25.72,13.45,12.31,22.16,14.76c6.53,1.84,18,3,25.05,3.47l.47-.13c5.79-4,15.11-10.82,19.81-15.72,6.25-6.54,10.73-15,11.58-24S498.83,366.12,492.14,360Z" fill="#e1e1e1"/>
<path d="M477.8,428.74c-1.12-1.55-5.67-4.9-7.4-5.72l-2.79,1c-.74,1.33-1.38,7.34-1,8.81.13.46.4,1,.88,1s.69-.32.93-.63a19.86,19.86,0,0,0,1.8-2.88,1.8,1.8,0,1,0,3.13-.92,7.94,7.94,0,0,0,3.67,1.17,1.27,1.27,0,0,0,1-.25C478.43,429.92,478.14,429.22,477.8,428.74Z" fill="#e1e1e1"/>
<path d="M173.81,221.13c-2.78-6.59-9.52-11.53-16.67-11.44a15.74,15.74,0,0,0-14.25,10.08,15.74,15.74,0,0,0-10.18-14.19c-6.73-2.41-14.71,0-19.49,5.37s-6.45,13-5.08,20.06a32.36,32.36,0,0,0,11,17.94c4.08,3.49,12,8.14,16.82,10.81l.39.06c5.47-.93,14.43-2.75,19.43-4.71,6.65-2.62,12.67-7.18,16.26-13.36S176.6,227.72,173.81,221.13Z" fill="#e1e1e1"/>
<path d="M140.73,265.68a24.46,24.46,0,0,0-3.41-6.57l-2.34-.2a18.34,18.34,0,0,0-3.63,6c-.07.37,0,.84.29,1a1,1,0,0,0,.88-.14,15.17,15.17,0,0,0,2.24-1.47,1.42,1.42,0,1,0,2.56.38,6.24,6.24,0,0,0,2.24,2.06,1,1,0,0,0,.8.15C140.79,266.73,140.81,266.13,140.73,265.68Z" fill="#e1e1e1"/>
<path d="M769.28,220.65c-6.15-8-17.1-12.27-26.8-9.59a22.15,22.15,0,0,0-15.78,18.85,22.16,22.16,0,0,0-19-15.67c-10-.87-20,5.35-24.6,14.3s-4.1,20.07.29,29.12,12.36,16.1,21.42,20.48c6.81,3.28,19.2,6.78,26.78,8.66l.54-.05c7.11-3.23,18.66-8.92,24.75-13.38,8.12-5.95,14.67-14.32,17.35-24S775.43,228.62,769.28,220.65Z" fill="#e1e1e1"/>
<path d="M740.23,293.15c-.93-1.92-5.26-6.47-7-7.7L730,286c-1.07,1.32-2.93,7.78-2.79,9.47,0,.53.25,1.15.77,1.27a1.35,1.35,0,0,0,1.13-.51,20.4,20.4,0,0,0,2.53-2.81,2,2,0,1,0,3.61-.39,8.92,8.92,0,0,0,3.8,2,1.38,1.38,0,0,0,1.13-.08C740.69,294.57,740.51,293.74,740.23,293.15Z" fill="#e1e1e1"/>
<path d="M678.57,321.16c-7.38-7.66-19.38-10.92-29.27-7-8.58,3.43-14.66,12.54-14.41,21.63-3.31-8.47-12.48-14.48-21.71-14.27-10.64.24-20.41,7.93-24.21,17.87S587,361,592.65,370s14.84,15.49,24.87,19c7.53,2.67,21,4.91,29.14,6l.56-.12c7.1-4.22,18.58-11.53,24.47-16.93,7.84-7.18,13.76-16.74,15.45-27.24S686,328.82,678.57,321.16Z" fill="#e1e1e1"/>
<path d="M656.42,400.71c-1.19-1.92-6.27-6.2-8.24-7.29l-3.35,1c-1,1.51-2.19,8.51-1.84,10.27.11.55.39,1.18,1,1.24a1.44,1.44,0,0,0,1.13-.66,22,22,0,0,0,2.34-3.25,2.12,2.12,0,1,0,3.75-.83,9.35,9.35,0,0,0,4.22,1.66,1.46,1.46,0,0,0,1.18-.22C657.07,402.14,656.79,401.29,656.42,400.71Z" fill="#e1e1e1"/>
<rect x="112.78" y="483.39" width="111.21" height="172.66" fill="#f5f5f5"/>
<rect x="161.64" y="483.39" width="13.49" height="172.66" fill="#ececec"/>
<path d="M133,473.49s9.21-17.15,12.94-17.14c0,0,13.08,5.8,20.36,24.34h6.46s3.59-14.78,20.94-22.74c0,0,9.66,17.87,10,17.7s-8.36,8.48-22.29,9-34.16-.95-34.16-.95S135.06,478.42,133,473.49Z" fill="#ececec"/>
<path d="M176.11,483.14s14.67-8.25,26.43-7.33C202.54,475.81,188.76,487.15,176.11,483.14Z" fill="#e1e1e1"/>
<path d="M134.46,473.4s18.84,1.27,28.59,10.38C163.05,483.78,145,485.67,134.46,473.4Z" fill="#e1e1e1"/>
<path d="M476.86,485.47s-.6-1-1.55-3.13a41.16,41.16,0,0,1-2.81-9.63,46,46,0,0,1-.62-7.23,48.93,48.93,0,0,1,.85-8.6,41.35,41.35,0,0,1,9-18.86c4.93-6.13,12.08-11.12,19.94-15.78s16.72-8.95,25-15c8.37-5.87,15.59-14.52,18.83-25.25,3.48-10.63,4-22.34,4.53-34.17s1.34-23.6,5.06-34.28a46.57,46.57,0,0,1,7.95-14.48,33.91,33.91,0,0,1,2.76-3,29.07,29.07,0,0,1,3-2.66,27.13,27.13,0,0,1,6.87-3.87,19.09,19.09,0,0,1,7.59-1.28,15.7,15.7,0,0,1,7.19,2.11,13.57,13.57,0,0,1,5.14,5.17,10.28,10.28,0,0,1,1,7,11.23,11.23,0,0,1-3.23,6,9.52,9.52,0,0,1-2.83,1.82,9,9,0,0,1-3.26.56,9.46,9.46,0,0,1-5.85-2.32,16.32,16.32,0,0,1-3.8-4.69,26.86,26.86,0,0,1-3.15-10.67,52.56,52.56,0,0,1-.12-9.92,56.81,56.81,0,0,1,1.37-8.53,58.34,58.34,0,0,1,2.22-6.92,48.51,48.51,0,0,1,4.57-8.93c1.24-1.92,2-2.86,2-2.86s-.15.26-.47.75-.84,1.2-1.41,2.19a50.47,50.47,0,0,0-4.43,9,57.22,57.22,0,0,0-2.15,6.9,56.64,56.64,0,0,0-1.3,8.48,51.89,51.89,0,0,0,.17,9.84,26.63,26.63,0,0,0,3.14,10.48,15.82,15.82,0,0,0,3.69,4.53,9,9,0,0,0,5.53,2.17,8.41,8.41,0,0,0,3-.53,8.9,8.9,0,0,0,2.64-1.72,10.64,10.64,0,0,0,3-5.69,9.59,9.59,0,0,0-1-6.56,12.73,12.73,0,0,0-4.91-4.91,15.08,15.08,0,0,0-6.91-2,18.57,18.57,0,0,0-7.33,1.25,26.67,26.67,0,0,0-6.7,3.79,28.88,28.88,0,0,0-2.94,2.61,32.53,32.53,0,0,0-2.7,2.92,45.85,45.85,0,0,0-7.82,14.28c-3.67,10.57-4.58,22.25-5,34.08s-1,23.6-4.58,34.35A55.51,55.51,0,0,1,543,390a43.72,43.72,0,0,1-4.43,6.91,53.35,53.35,0,0,1-11.49,10.91c-8.39,6.06-17.25,10.34-25.12,15S487,432.3,482.1,438.34a41,41,0,0,0-9,18.61,49.35,49.35,0,0,0-.9,8.53,44.83,44.83,0,0,0,.55,7.19,42.91,42.91,0,0,0,2.67,9.61c.42,1.07.84,1.83,1.07,2.37S476.86,485.47,476.86,485.47Z" fill="#e1e1e1"/>
<path d="M588.68,35.07c-1.64-6.95-3.91-14.25-9.42-18.79-8.08-6.65-21-4.65-28.53,2.66s-10.07,18.5-9.24,28.93S546.18,68.21,550,78l11.88,30.41,31.77-11.78A205.59,205.59,0,0,0,588.68,35.07Z" fill="#195de6" data-primary="true"/>
<g opacity="0.3">
<path d="M579.42,41.73c-.92-3.9-2.2-8-5.29-10.55-4.53-3.73-11.81-2.61-16,1.49s-5.65,10.39-5.18,16.25,2.63,11.42,4.76,16.89c2.23,5.69,10.66,30.35,12.89,36l16-5.28C587.39,85,582.08,53,579.42,41.73Z" fill="#fff"/>
</g>
<path d="M657,51c4-5.89,8.81-11.87,15.59-14.1,9.93-3.27,21.29,3.29,25.62,12.81s2.69,20.9-1.87,30.31-11.74,17.26-18.81,25l-22.1,24L630.09,106.5A205.92,205.92,0,0,1,657,51Z" fill="#195de6" data-primary="true"/>
<g opacity="0.3">
<path d="M663.21,60.53c2.27-3.3,4.95-6.66,8.76-7.92,5.58-1.83,11.95,1.85,14.38,7.2s1.51,11.73-1.05,17-6.59,9.69-10.56,14c-4.14,4.5-20.94,24.43-25.07,28.93l-13-10.72C640.1,98,656.65,70.09,663.21,60.53Z" fill="#fff"/>
</g>
<circle cx="597.7" cy="170.95" r="77.52" transform="translate(54.18 472.71) rotate(-45)" fill="#195de6" data-primary="true"/>
<path d="M589.44,156.32a5.84,5.84,0,1,1-3.78-7.34A5.84,5.84,0,0,1,589.44,156.32Z" fill="#8019e6" data-secondary="true"/>
<path d="M627.87,164.28a5.84,5.84,0,1,1-3.78-7.34A5.83,5.83,0,0,1,627.87,164.28Z" fill="#8019e6" data-secondary="true"/>
<g opacity="0.3">
<path d="M620.75,185.41c1.19-4.91-.68-10.21-4-14s-7.93-6.27-12.67-8l-2.29-.67a20.5,20.5,0,0,0-14.81,1.9,18.25,18.25,0,0,0-8.88,11.88,16.53,16.53,0,0,0,3.68,14.26c2.9,3.25,7,5.12,11.17,6.47,3.8,1.25,7.84,2.15,11.8,1.56a20.48,20.48,0,0,0,8.15-3.29C616.55,193.13,619.72,189.66,620.75,185.41Z" fill="#fff"/>
</g>
<path d="M610.32,168.13a3.31,3.31,0,0,0-1.5-2.58c-4.3-3.54-10.72-4.4-15.48-1.6a1.91,1.91,0,0,0-.86,1.16h0a2,2,0,0,0,.15,1.47,28.17,28.17,0,0,0,4.24,5.92c1.06,1.13,2.35,2.23,3.9,2.26a6.31,6.31,0,0,0,3.35-1.28c1.5-.95,3-1.95,4.4-3A3.67,3.67,0,0,0,610.32,168.13Z" fill="#8019e6" data-secondary="true"/>
<path d="M608.16,181.17a2.35,2.35,0,0,1-.25,1,11.62,11.62,0,0,1-1.31,2.46,11.49,11.49,0,0,1-2.94,2.93,10.07,10.07,0,0,1-4.81,1.69,8.6,8.6,0,0,1-5-1,8.06,8.06,0,0,1-3-3,6.81,6.81,0,0,1-.88-2.66,2.06,2.06,0,0,1,.05-1,10.18,10.18,0,0,0,1.26,3.42,7.77,7.77,0,0,0,2.84,2.64,8.32,8.32,0,0,0,4.62.92,9.88,9.88,0,0,0,4.5-1.54,11.86,11.86,0,0,0,2.9-2.68C607.58,182.5,608,181.11,608.16,181.17Z" fill="#8019e6" data-secondary="true"/>
<path d="M595.28,259.14c-.92-3.45-5.15-10.18-7.62-12.75l-7-2.24c-2.18,1.83-7.29,11.86-7.58,14.69-.1.89,0,2,.86,2.33a2.28,2.28,0,0,0,2-.47,35.52,35.52,0,0,0,5.06-3.82,3.35,3.35,0,1,0,6.06.49,14.75,14.75,0,0,0,5.61,4.47,2.3,2.3,0,0,0,1.9.23C595.6,261.61,595.56,260.19,595.28,259.14Z" fill="#195de6" data-primary="true"/>
<g opacity="0.2">
<path d="M595.28,259.14c-.92-3.45-5.15-10.18-7.62-12.75l-7-2.24c-2.18,1.83-7.29,11.86-7.58,14.69-.1.89,0,2,.86,2.33a2.28,2.28,0,0,0,2-.47,35.52,35.52,0,0,0,5.06-3.82,3.35,3.35,0,1,0,6.06.49,14.75,14.75,0,0,0,5.61,4.47,2.3,2.3,0,0,0,1.9.23C595.6,261.61,595.56,260.19,595.28,259.14Z"/>
</g>
<circle cx="253.99" cy="62.78" r="34.49" transform="translate(105.15 277.95) rotate(-69.21)" fill="#8019e6" data-secondary="true"/>
<g opacity="0.3">
<circle cx="253.99" cy="62.78" r="17.96" fill="#fff"/>
</g>
<circle cx="124.72" cy="65.82" r="34.49" transform="translate(-16.11 73.13) rotate(-30.79)" fill="#8019e6" data-secondary="true"/>
<g opacity="0.3">
<circle cx="124.72" cy="65.82" r="17.96" fill="#fff"/>
</g>
<circle cx="194.17" cy="109.75" r="71.97" transform="translate(20.38 249.55) rotate(-68.29)" fill="#8019e6" data-secondary="true"/>
<path d="M183.39,98.49a5.43,5.43,0,1,1-5.09-5.74A5.42,5.42,0,0,1,183.39,98.49Z"/>
<path d="M219.8,96.84a5.42,5.42,0,1,1-5.09-5.74A5.43,5.43,0,0,1,219.8,96.84Z"/>
<g opacity="0.3">
<path d="M218.23,117.48c-.06-4.68-3-9-6.81-11.68s-8.57-3.82-13.23-4.28l-2.21-.07a19,19,0,0,0-12.89,5.1,16.94,16.94,0,0,0-5.27,12.72,15.35,15.35,0,0,0,6.58,12c3.35,2.25,7.5,3,11.53,3.26,3.71.25,7.55.14,11-1.3a19,19,0,0,0,6.58-4.83C216.22,125.4,218.27,121.55,218.23,117.48Z" fill="#fff"/>
</g>
<path d="M204.88,104.33a3,3,0,0,0-1.93-2c-4.68-2.2-10.66-1.5-14.3,2.11a1.76,1.76,0,0,0-.51,1.23h0a1.79,1.79,0,0,0,.47,1.29,26.05,26.05,0,0,0,5.18,4.36,5.42,5.42,0,0,0,4,1.14,5.85,5.85,0,0,0,2.73-1.92q1.69-1.8,3.27-3.7A3.35,3.35,0,0,0,204.88,104.33Z"/>
<path d="M205.93,116.55a2.15,2.15,0,0,1,0,1,10.23,10.23,0,0,1-.6,2.51,10.57,10.57,0,0,1-2,3.32,9.4,9.4,0,0,1-4,2.64,8.08,8.08,0,0,1-4.75.19,7.51,7.51,0,0,1-3.34-2,6.39,6.39,0,0,1-1.4-2.21,2,2,0,0,1-.18-.93,10.13,10.13,0,0,0,1.93,2.78,7.31,7.31,0,0,0,3.15,1.71,7.8,7.8,0,0,0,4.36-.23,9.83,9.83,0,0,0,5.69-5.47C205.7,117.88,205.8,116.53,205.93,116.55Z"/>
<path d="M195.63,179.52c-1.54,2.15-3.84,12.35-3.46,15,.12.82.49,1.77,1.31,1.9a2.12,2.12,0,0,0,1.71-.89,33.28,33.28,0,0,0,3.68-4.6,3.11,3.11,0,1,0,5.56-.95,13.74,13.74,0,0,0,6.08,2.75,2.23,2.23,0,0,0,1.76-.23c.78-.64.42-1.91-.07-2.8-1.62-2.89-7-8-9.78-9.73" fill="#8019e6" data-secondary="true"/>
<g opacity="0.2">
<path d="M195.63,179.52c-1.54,2.15-3.84,12.35-3.46,15,.12.82.49,1.77,1.31,1.9a2.12,2.12,0,0,0,1.71-.89,33.28,33.28,0,0,0,3.68-4.6,3.11,3.11,0,1,0,5.56-.95,13.74,13.74,0,0,0,6.08,2.75,2.23,2.23,0,0,0,1.76-.23c.78-.64.42-1.91-.07-2.8-1.62-2.89-7-8-9.78-9.73"/>
</g>
<path d="M240.32,528.18s.06-.31.21-.92.38-1.52.68-2.69c.6-2.38,1.47-5.86,2.59-10.34s2.37-10,3.51-16.48a134.56,134.56,0,0,0,2.14-22.17A85.61,85.61,0,0,0,245.6,449a64.29,64.29,0,0,0-6.15-13.66,60.91,60.91,0,0,0-4.51-6.41c-1.66-2.08-3.44-4.11-5.18-6.23a50.91,50.91,0,0,1-4.84-6.81,22.25,22.25,0,0,1-2.87-8.08,21.67,21.67,0,0,1,.73-8.72,47,47,0,0,1,3.34-8.26c2.64-5.34,5.94-10.49,7.78-16.32a19.35,19.35,0,0,0,.8-9,16.91,16.91,0,0,0-3.94-8.21c-4-4.79-9.53-8-14.06-12.24a24.27,24.27,0,0,1-5.63-7.31,18.15,18.15,0,0,1-1.72-8.92c.37-6.09,3-11.56,5.45-16.68s5.27-10.06,7-15.21a30.26,30.26,0,0,0,1.66-7.82,18.61,18.61,0,0,0-1.07-7.62c-1.76-4.85-5.44-8.49-9-11.76s-7.19-6.38-9.84-10.11A40.44,40.44,0,0,1,197.81,248a57.74,57.74,0,0,1-2.2-22.18,105.78,105.78,0,0,1,2.85-16.63c1.1-4.5,2.12-7.95,2.79-10.29.34-1.15.61-2,.79-2.66s.3-.9.3-.9-.07.32-.23.92l-.72,2.68c-.63,2.35-1.6,5.81-2.66,10.32A107.19,107.19,0,0,0,196,225.8a57.7,57.7,0,0,0,2.29,22,39.67,39.67,0,0,0,5.76,11.48c2.61,3.66,6.2,6.72,9.79,10a54.89,54.89,0,0,1,5.22,5.33,22.72,22.72,0,0,1,3.94,6.64,19.07,19.07,0,0,1,1.13,7.88,30.78,30.78,0,0,1-1.68,8c-1.78,5.23-4.52,10.17-7,15.3s-5,10.52-5.37,16.42a17.58,17.58,0,0,0,1.66,8.58,23.75,23.75,0,0,0,5.49,7.09c4.45,4.17,9.95,7.38,14.11,12.3a17.59,17.59,0,0,1,4.1,8.55,19.88,19.88,0,0,1-.83,9.33c-1.88,6-5.21,11.12-7.83,16.43a46.68,46.68,0,0,0-3.29,8.12,21,21,0,0,0-.73,8.45,21.63,21.63,0,0,0,2.78,7.84,49.4,49.4,0,0,0,4.77,6.72c1.73,2.12,3.5,4.16,5.17,6.25A62.16,62.16,0,0,1,240,435a64.68,64.68,0,0,1,6.18,13.8,86.19,86.19,0,0,1,3.8,26.78,134.28,134.28,0,0,1-2.26,22.24c-1.18,6.48-2.5,12-3.63,16.48s-2.08,8-2.73,10.31l-.74,2.67C240.43,527.88,240.32,528.18,240.32,528.18Z" fill="#e1e1e1"/>
<path d="M227.92,301.49c-8.76-11.35-24.36-17.49-38.18-13.66-12,3.32-21.5,14.63-22.49,26.84-3.2-11.83-14.59-21.22-27-22.31-14.29-1.25-28.51,7.62-35.07,20.37s-5.83,28.59.43,41.49,17.6,22.94,30.52,29.18c9.69,4.68,27.35,9.66,38.15,12.35l.77-.07c10.13-4.61,26.59-12.72,35.27-19.08,11.57-8.48,20.9-20.41,24.71-34.23S236.68,312.84,227.92,301.49Z" fill="#195de6" data-primary="true"/>
<path d="M186.53,404.79c-1.32-2.73-7.49-9.22-10-11l-4.63.81c-1.53,1.88-4.18,11.08-4,13.49.07.75.36,1.64,1.1,1.8a2,2,0,0,0,1.61-.71,30.49,30.49,0,0,0,3.61-4,2.85,2.85,0,1,0,5.14-.56,12.53,12.53,0,0,0,5.41,2.83,1.94,1.94,0,0,0,1.62-.11C187.19,406.81,186.93,405.63,186.53,404.79Z" fill="#195de6" data-primary="true"/>
<path d="M430.08,591.34s-40.76,16.92-32.81,28.58,37.55-4.81,37.55-4.81l24.69-5.38-2.2-17.21Z" fill="#195de6" data-primary="true"/>
<path d="M345,601.06s-3,3.13.79,5.58c0,0,.36.57,15.67,3.29,0,0,20,3.9,30.7,5.08,0,0,21,1.44,17-7Z" fill="#8019e6" data-secondary="true"/>
<path d="M345,601.06s-3,3.13.79,5.58c0,0,.36.57,15.67,3.29,0,0,20,3.9,30.7,5.08,0,0,21,1.44,17-7Z" opacity="0.2"/>
<path d="M345.83,597.89s-2.9,4.56,2.38,7.1a9.79,9.79,0,0,0,2.37.76c4.57.94,24,4.82,41.62,6.9,0,0,17.91,2.11,17.24-6.64Z" fill="#8019e6" data-secondary="true"/>
<path d="M282.29,612.9s-3,3.13.79,5.58c0,0,.36.57,15.67,3.29,0,0,20,3.9,30.7,5.08,0,0,21,1.44,17-7Z" fill="#8019e6" data-secondary="true"/>
<path d="M282.29,612.9s-3,3.13.79,5.58c0,0,.36.57,15.67,3.29,0,0,20,3.9,30.7,5.08,0,0,21,1.44,17-7Z" opacity="0.2"/>
<path d="M283.08,609.73s-2.9,4.56,2.38,7.1a9.79,9.79,0,0,0,2.37.76c4.57.94,24,4.82,41.62,6.9,0,0,17.91,2.11,17.24-6.64Z" fill="#8019e6" data-secondary="true"/>
<path d="M353.13,577.13a162.87,162.87,0,0,1-24.66,8.69S315.11,588,317,595c0,0-1,5.13,13.44,6.06s57.07-1.44,57.07-1.44,4.52-13.21-2.48-22Z" fill="#195de6" data-primary="true"/>
<path d="M469.25,281.83s8.19,24.17,2.27,79.82l-7.1,88.8s9.64,70.83-2.88,117.1H437.19l-13-85.14s-8.12-37.3-7.61-57.72c0,0-3.86-22.45-7-29.72,0,0-5.51,16.4-10.25,24.69,0,0-3.55,103-11.84,130.24L365,548.71l5.91-259.28S426.73,296.72,469.25,281.83Z" fill="#8019e6" data-secondary="true"/>
<path d="M393.38,307.19l8.29,10.27S404.4,375,409.55,395L405,407.32S395.75,364,396.93,319C396.93,319,392.2,315.47,393.38,307.19Z" opacity="0.2"/>
<path d="M385.83,549.81s-2.14,20-.85,27.82c0,0-27.12,12.52-33,6.6,0,0-2.37-4.73,1.19-7.1,0,0,18.9-7.92,15.37-28.23Z" fill="#f7a48b"/>
<path d="M347.58,567.55a51.75,51.75,0,0,1,.93,15.71,9.3,9.3,0,0,1-.38,1.8c-1,3.23-4.3,14.93-.55,16.41,0,0,5.55,4.07,28,6.44,0,0,22.05,4.24,31,1.24a4.25,4.25,0,0,0,2-6.66,14.1,14.1,0,0,0-5.79-4l-35.52-14.21.67-14.4A105,105,0,0,1,347.58,567.55Z" fill="#f9b499"/>
<path d="M466.87,282.56s-27.65,10.5-73.57,8.67h-.17c-7-.28-14.42-.86-22.25-1.79L355.52,152.88v-22.3a59.29,59.29,0,0,1,13-16.77c5.23-4.58,12-8.43,20.1-8.94l32-7.24s44.88-2.35,42,45c0,0-1.87,24-1.88,49.87,0,8,.17,16.12.63,23.81h0a156.19,156.19,0,0,0,3.08,24.57l7.7,32.61S476.42,280.43,466.87,282.56Z" fill="#195de6" data-primary="true"/>
<path d="M466.87,282.56s-27.65,10.5-73.57,8.67h-.17c-7-.28-14.42-.86-22.25-1.79L355.52,152.88v-22.3a59.29,59.29,0,0,1,13-16.77c5.23-4.58,12-8.43,20.1-8.94l32-7.24s44.88-2.35,42,45c0,0-1.87,24-1.88,49.87,0,8,.17,16.12.63,23.81h0a156.19,156.19,0,0,0,3.08,24.57l7.7,32.61S476.42,280.43,466.87,282.56Z" fill="#fff" opacity="0.5"/>
<path d="M388.64,100v7.78s-1.18,8.79,10.66,5.24c0,0,13-4.74,21.31-15.39,0,0-7.69-15.31-15.69-20.68Z" fill="#f9b499"/>
<path d="M388.64,100v7.78s14.28-1,14.84-20.35Z" fill="#f7a48b"/>
<path d="M461.34,216.31h0C459.43,229.64,449,239.7,449,239.7L393.3,291.23h-.17l-22.25-1.79L355.52,152.88v-22.3a59.29,59.29,0,0,1,13-16.77h0c-14.21,24.46,0,52.49,0,52.49,20.12,36.7,5.09,52.09,5.09,52.09,12.19,11.84,15,29.6,15,29.6,3.56-4.74,29-33.76,29-33.76l-1.12-20.7h-4.21l2-37.89c2-28.41,8.68-34.33,8.68-34.33S413.51,145,418.24,190a272.38,272.38,0,0,0,42.46,2v.48Z" fill="#fff" opacity="0.2"/>
<path d="M355.52,130.58s-7.85,7.25-16.6,6.12l.28,3.2s4.5.37,6.85,2.73c0,0,7.54,1.57,13.23,10.25C359.28,152.88,357.91,136.29,355.52,130.58Z" fill="#8019e6" data-secondary="true"/>
<path d="M381.54,388.2c2.37,31.3,0,63.43,0,63.43l-4.74,116c-15.39,7.1-40.25,1.18-40.25,1.18V504.91c2.37-42.63,5.92-66.3,5.92-66.3-3.55-7.11-7.1-16.58-7.1-16.58-3.56-10.66-4.74-9.47-4.74-9.47-1.18,14.21-7.1,42.62-7.1,42.62,1.18,8.29-2.37,54.46-2.37,54.46l-3.55,71c-17.76,3.55-42.63-3.55-42.63-3.55V509.64c1.19-42.62,5-56.15,5-56.15,2.66-11.17,0-17.25,0-17.25-4.57-24-7.36-79.22-8.26-99.18a41.48,41.48,0,0,0-.93-6.95,48.08,48.08,0,0,0-1.26-4.71,24.06,24.06,0,0,1-.77-3.09v0c-4.55-24.07,20.41-62.46,20.41-62.46.42-1.14.81-2.26,1.15-3.39.51-1.58.94-3.15,1.31-4.71l2-19.94a80.08,80.08,0,0,0-8-32.34l9.47-16.58a2.32,2.32,0,0,0-2.37-2.37c-9.44-.86-13.28-6.07-14.68-8.88a3.31,3.31,0,0,0-2.83-1.81,31.61,31.61,0,0,1-6.11-.78,10.51,10.51,0,0,1-3.81-1.62,1.07,1.07,0,0,1,.07-1.74c.19-.12.39-.26.58-.4a21.84,21.84,0,0,0,5.88-6.49C278.22,148,283.27,145,283.27,145c8.29-9.48,20.13-8.29,20.13-8.29l12.77,40c3.31,4.44,42.88.28,42.88.28,5.92,0,2.36-5.92,2.36-5.92-3.49-9.33-15-27.82-15.38-28.4h0c11.82,2.38,17.73,18.93,17.73,18.93l7.93,17.84a47.71,47.71,0,0,1,3.16,9.57c4.62,21.62-6.35,30.6-6.35,30.6,9.47,9.48,14.07,23.17,14.07,23.17,9.35,30.28-11.71,46.69-11.71,46.69C375.62,301.27,381.54,388.2,381.54,388.2Z" fill="#195de6" data-primary="true"/>
<path d="M373.61,212s-12.2,6.44-20.48-8.95c0,0-1.19,10.65-9.48,11.84a27.51,27.51,0,0,0-10.83,2.81,21.68,21.68,0,0,1-9.54,2.11c-5,0-11.68-.47-15.14-2.55,0,0,3.55,8.28,20.12,5.92,0,0-3.55,9.47,1.19,15.39,0,0-1.57-13.32,12.49-19.56a31.26,31.26,0,0,1,24.22-.44c.78.31,1.57.66,2.36,1C368.52,219.57,372.78,215,373.61,212Z" opacity="0.2"/>
<path d="M359.05,177c5.92,0,2.36-5.92,2.36-5.92-3.49-9.33-15-27.82-15.38-28.4h0c.49.3,8.48,5.28,15.36,22.48C361.41,165.11,370.88,180.5,359.05,177Z" opacity="0.2"/>
<path d="M339.2,136.65v3.25s4.5.37,6.85,2.73c0,0,11.81,18.93,15.36,28.4,0,0,3.56,5.92-2.36,5.92,0,0-38.39,4.17-42.88-.28,0,0,7.36-13.93,1.44-35.24,0,0-3.6-17.55,1.16-31.86C318.77,109.57,320.54,129.5,339.2,136.65Z" fill="#f9b499"/>
<path d="M353.13,266.93c1.18,4.74-1.19,3.55-1.19,3.55-1.18,4.74-4.73,1.19-4.73,1.19-3.56,4.73-4.74-1.19-4.74-1.19-1.18-4.73-9.47-2.36-9.47-2.36-11.84,1.18-17.76-5.92-17.76-5.92-1.18-2.37-7.1-3.8-7.1-3.8l-16.49-6.67L259,238.52c-19.51-5.92-10.1-24.87-10.1-24.87L269.12,169a31.61,31.61,0,0,0,6.11.78,3.31,3.31,0,0,1,2.83,1.81c1.4,2.81,5.24,8,14.68,8.88a2.32,2.32,0,0,1,2.37,2.37l-9.47,16.58L273.8,218.39l19.81,13.4,22.56,15.26c4.49,3.82,7.36,3.31,7.36,3.31h13.09a12.44,12.44,0,0,1,8.72,3.53,74.34,74.34,0,0,1,5.42,5.94C356.68,265.75,353.13,266.93,353.13,266.93Z" fill="#f9b499"/>
<path d="M345.49,273.29l-.11.21a5.66,5.66,0,0,1-4.13-1.2,7.16,7.16,0,0,0-6.3-2c-.23,0-.5.1-.77.17a24.52,24.52,0,0,1-19.5-6.27,24,24,0,0,0-9.79-5.33,63.65,63.65,0,0,0-14.55-2.44c.51-1.58.94-3.15,1.31-4.71l16.49,6.67s5.92,1.43,7.1,3.8c0,0,5.92,7.1,17.76,5.92,0,0,8.29-2.37,9.47,2.36C342.47,270.48,343.26,274.44,345.49,273.29Z" opacity="0.2"/>
<path d="M351.76,260.88c-.29-.33-.64-.68-1-1.05a74.34,74.34,0,0,0-5.42-5.94,12.44,12.44,0,0,0-8.72-3.53H323.53s-2.87.51-7.36-3.31l-22.56-15.26a80.08,80.08,0,0,0-8-32.34l9.47-16.58s2.37,2.37,2.37,4.74a41.9,41.9,0,0,0-2.37,14.21s-1.18,22.7,2.37,26.74l23.68,18.25s2.37,1.18,9.47,1.18,10.66,0,14.21,3.55Z" opacity="0.2"/>
<path d="M308.14,286.6s.07,0,.1-.05a3.57,3.57,0,0,0-.22-6.44,75,75,0,0,1-14.54-9.23,6.32,6.32,0,0,1-2.37-5.61,23.19,23.19,0,0,1,.45-2.64s2.25-7.16,1.13-10.9l-3.23-.89s-2.64,10.7-6.19,14c0,0-10.81,8.2-8.79,20.73a4.36,4.36,0,0,0,2.13,3.06c6,3.56,25.79,14.58,26.79,5.54,0,0,3.55,1.19,3.55-3.55C307,290.61,309.32,289.69,308.14,286.6Z" fill="#f9b499"/>
<path d="M292.2,278.53c5.41,2.56,10.46,5.65,15.94,8.07a29,29,0,0,1-8.42-3.16,47.4,47.4,0,0,1-7.52-4.91Z" fill="#f7a48b"/>
<path d="M288.56,282.56c5.84,3.4,11.81,6.45,18.39,8.05-6.72-.28-13.4-3.64-18.39-8.05Z" fill="#f7a48b"/>
<path d="M285.64,288.29c5.94,2,11.57,4.78,17.76,5.87-5.53.42-13.09-3-17.76-5.87Z" fill="#f7a48b"/>
<path d="M270.82,330.1h0a48.08,48.08,0,0,0-1.26-4.71,24.06,24.06,0,0,1-.77-3.09v0c-.3-16.86,7.39-17.47,7.39-17.47C267.88,311.92,270.82,330.1,270.82,330.1Z" opacity="0.2"/>
<path d="M333,306s4.73,15.39,4.73,39.07c0,0-2.31,57.74-6.92,67.16a.24.24,0,0,0,.13.34c.5.19,1.58,1.24,3.24,6.1,0,0,1.19,4.54,7,17.22l3.68-84.9s1.18-14.2,10.65-24.86a57.31,57.31,0,0,0-12.35,13.19S341.29,314.29,333,306Z" opacity="0.2"/>
<path d="M336.55,262.2c4.72-.63,9.28,3,10.35,7.54a16.14,16.14,0,0,1,.31,1.93c-.33-.58-.56-1.17-.85-1.72a14.26,14.26,0,0,0-9.81-7.75Z" fill="#f7a48b"/>
<path d="M340.1,258.64c5.66,1.41,10,6.43,11.84,11.84-3.3-4.61-6.89-8.88-11.84-11.84Z" fill="#f7a48b"/>
<path d="M342.47,255.09a21.84,21.84,0,0,1,10.66,11.84,109.59,109.59,0,0,0-10.66-11.84Z" fill="#f7a48b"/>
<path d="M273.8,218.39l-8.91-4a88,88,0,0,1,11.39,0Z" fill="#f7a48b"/>
<path d="M284.83,579.39a51.94,51.94,0,0,1,.94,15.71,10.14,10.14,0,0,1-.39,1.8c-1,3.23-4.3,14.93-.55,16.4,0,0,5.55,4.08,28,6.45,0,0,22.05,4.24,31,1.24a4.25,4.25,0,0,0,2-6.66,14.1,14.1,0,0,0-5.79-4.05l-35.52-14.21.67-14.4A105,105,0,0,1,284.83,579.39Z" fill="#f9b499"/>
<path d="M284.43,600.32a1.54,1.54,0,0,0,0,.85,17.64,17.64,0,0,0,5,7.14,2.91,2.91,0,0,1,1,2.17l0,5a1.4,1.4,0,0,0,1.21,1.39c1.26.19,3.62.57,7.56,1.33a1.43,1.43,0,0,0,1.69-1.51,15.6,15.6,0,0,1,.33-4.68,4,4,0,0,1,7.41-.77,4.14,4.14,0,0,0,3.69,2.53.59.59,0,0,1,.56.58l-.11,4.94a1.42,1.42,0,0,0,1.07,1.42l1.38.34a1.42,1.42,0,0,0,1.66-.85l.33-.8a2.75,2.75,0,0,1,5.26,1.07v.06a1.42,1.42,0,0,0,1.31,1.4l2.71.23a1.43,1.43,0,0,0,1.54-1.35,5.78,5.78,0,0,1,3.79-5.51,21.79,21.79,0,0,0,3.06-1.3l.32-.17a3.64,3.64,0,0,0-.21-6.52c-8.08-3.72-21.81-9.87-28.3-11.83a4.47,4.47,0,0,0-4,.71c-1.63,1.26-3.32,3.34-.8,5.5a1.28,1.28,0,0,1,.46.81c.17,1,.18,2.89-2.27,3a1.19,1.19,0,0,0-.37.06c-.58.19-2.9.61-7-2.42,0,0-6.85-5.5-7-8.08,0,0-.19.83-.25,1.18l-.11.5Z" fill="#8019e6" data-secondary="true"/>
<ellipse cx="381.79" cy="69.14" rx="21.86" ry="33.34" transform="translate(-3.16 117.69) rotate(-17.45)" fill="#f9b499"/>
<path d="M437.19,567.55v14.1a10,10,0,0,1-5.65,9l-1.46.71s3.35,16.66,20.62,6.55l6.61-5.37V567.36Z" fill="#f7a48b"/>
<rect x="413.51" y="455.18" width="2.37" height="178.78" fill="#b3b3b3"/>
<rect x="476.26" y="458.73" width="15.39" height="190.62" fill="#b3b3b3"/>
<rect x="523.61" y="457.55" width="15.39" height="191.8" fill="#b3b3b3"/>
<rect x="568.6" y="456.36" width="15.39" height="191.8" fill="#b3b3b3"/>
<polygon points="631.35 641.06 615.96 643.43 615.96 456.37 631.35 456.37 631.35 641.06" fill="#b3b3b3"/>
<rect x="645.56" y="450.45" width="2.37" height="183.51" fill="#b3b3b3"/>
<path d="M561.5,651.72c81.69-3.55,86.43-17.76,86.43-17.76v-2.31l-2.37.31c-17.76,15.77-114.25,16.21-114.25,16.21-109.52,0-117.8-18.7-117.8-18.7V634s-1,11.84,84.74,17.76Z" fill="#b3b3b3"/>
<path d="M415.88,627.36s8.49-8.61,40.35-12.25c0,0,32.64-6.13,96.19-4.89,0,0,69.46,1.07,93.14,17.14v-7.47s-15.39-12-86.43-15.53c0,0-107.74-2.37-143.25,16.32Z" fill="#999"/>
<ellipse cx="530.13" cy="660" rx="11.25" ry="10.66" fill="#b3b3b3"/>
<ellipse cx="412.32" cy="640.97" rx="8.29" ry="8.38" fill="#b3b3b3"/>
<ellipse cx="462.05" cy="614.92" rx="5.92" ry="5.99" fill="#999"/>
<ellipse cx="598.2" cy="613.74" rx="5.92" ry="5.99" fill="#999"/>
<ellipse cx="650.3" cy="639.78" rx="8.29" ry="8.38" fill="#b3b3b3"/>
<polygon points="464.9 613.34 456.13 612.65 456.13 463.47 464.9 464.17 464.9 613.34" fill="#999"/>
<polygon points="512.26 608.61 503.49 607.91 503.49 467.02 512.26 467.72 512.26 608.61" fill="#999"/>
<polygon points="558.44 608.61 549.66 607.91 549.66 467.02 558.44 467.72 558.44 608.61" fill="#999"/>
<rect x="594.65" y="463.47" width="9.47" height="146.81" fill="#999"/>
<path d="M359.15,67.88a16.55,16.55,0,0,1-3.58-9.48,4.63,4.63,0,0,0-.88-2.34c-1.19-1.66-3-5-.69-7.74a5.44,5.44,0,0,0,1.17-3.89c-.33-4.57.39-14,11-18.16l7.64-4.86A15.44,15.44,0,0,1,381.1,19c6.66-.4,19.35.28,25.3,10.27,0,0,13,6.79,11.84,21,0,0,6.08,7.8.08,20.47,0,0,3.11,19.51-3.81,16.69A38.67,38.67,0,0,0,404.92,77a42.28,42.28,0,0,0-4.44-18.39l-4.42,5.36a27.78,27.78,0,0,1-8.89-16.25,1.54,1.54,0,0,0-2.23-1.15c-2.62,1.34-7.14,3-9-.36A2.57,2.57,0,0,0,374.47,45a3.91,3.91,0,0,0-4.77,1.72s-1.91,2.86-4.87,1.73a1.86,1.86,0,0,0-2.14.68C361.08,51.32,358.37,56.76,359.15,67.88Z" fill="#8019e6" data-secondary="true"/>
<path d="M359.15,67.88a16.55,16.55,0,0,1-3.58-9.48,4.63,4.63,0,0,0-.88-2.34c-1.19-1.66-3-5-.69-7.74a5.44,5.44,0,0,0,1.17-3.89c-.33-4.57.39-14,11-18.16l7.64-4.86A15.44,15.44,0,0,1,381.1,19c6.66-.4,19.35.28,25.3,10.27,0,0,13,6.79,11.84,21,0,0,6.08,7.8.08,20.47,0,0,3.11,19.51-3.81,16.69A38.67,38.67,0,0,0,404.92,77a42.28,42.28,0,0,0-4.44-18.39l-4.42,5.36a27.78,27.78,0,0,1-8.89-16.25,1.54,1.54,0,0,0-2.23-1.15c-2.62,1.34-7.14,3-9-.36A2.57,2.57,0,0,0,374.47,45a3.91,3.91,0,0,0-4.77,1.72s-1.91,2.86-4.87,1.73a1.86,1.86,0,0,0-2.14.68C361.08,51.32,358.37,56.76,359.15,67.88Z" opacity="0.2"/>
<ellipse cx="400.48" cy="66.84" rx="5.92" ry="8.29" fill="#f9b499"/>
<path d="M420.2,190.22s1.59,16.91,4.55,26.09c0,0-6.54,5.42-29.61,34.53l-18.42,22.69s-21.17-1.22-24.54,5.32a.93.93,0,0,0,.82,1.35h12.23s-2.63,8.13-13.29,8.09c0,0-12.87-.05-8.8,5.87,0,0,.51,3.41,2.88,3.48a2.37,2.37,0,0,0,2.37,2.44s-1.18,3.56,7.1,2.37l12.75-1a9.92,9.92,0,0,0,5-1.83c3.07-2.22,8.42-6.48,11.72-11.35L399.3,276.4l39.07-34.33s13-11.84,15.39-24.86c0,0,2.88-15.81,3.21-25.07A242.26,242.26,0,0,1,420.2,190.22Z" fill="#f9b499"/>
<path d="M343.14,294.16c6.93-1.36,13.95-1.85,20.81-3.55-3.18,1.62-6.75,2.23-10.23,2.81a65.81,65.81,0,0,1-10.58.74Z" fill="#f7a48b"/>
<path d="M346,297.64c6.71-1.32,13.47-1.87,20.11-3.48a33.78,33.78,0,0,1-9.88,2.75,60.42,60.42,0,0,1-10.23.73Z" fill="#f7a48b"/>
<path d="M348.39,300.08c6.41-.89,12.86-1,19.17-2.44-2.91,1.5-6.23,2-9.44,2.34a51,51,0,0,1-9.73.1Z" fill="#f7a48b"/>
<path d="M339.2,136.65l0,3.32s-20.2-3.68-18.54-20C320.68,119.92,326.46,134.24,339.2,136.65Z" fill="#f7a48b"/>
<ellipse cx="341.96" cy="104.88" rx="33.05" ry="23.2" transform="translate(210.74 437.62) rotate(-85.53)" fill="#f9b499"/>
<path d="M356.23,77.8a3.21,3.21,0,0,0-4.79.18,93,93,0,0,1-17.26,16.1s-4.86,3.58-7.17,7.11l-8.24,8.38s-4.71,12.92-1.16,31.86c0,0,6.5,20.6-2.27,36.9a39.12,39.12,0,0,0-4,10.81c-1.31,6.48-1.26,14.69,6.23,17.41,0,0-14.55-2.24-12.1-20.86a26.33,26.33,0,0,1,.51-2.62c1-3.9,4.06-18.62-.79-29.51a18.32,18.32,0,0,0-9.47-9.41c-3.46-1.47-8.14-2.27-12.49.84,0,0,10.66-21.32,11.84-37.89,0,0,7.11-47.36,29.6-42.62a20.73,20.73,0,0,1,18.37-5.92,24.91,24.91,0,0,1,18.64,14.08c3.12,6.55,6,16.22,3.35,26.54C365.07,99.18,364.58,86.48,356.23,77.8Z" fill="#8019e6" data-secondary="true"/>
<ellipse cx="321.75" cy="102.96" rx="7.7" ry="5.33" transform="translate(194.03 415.7) rotate(-85.53)" fill="#f9b499"/>
<path d="M347.07,588.89a17.19,17.19,0,0,0,5.09,7.58,2.91,2.91,0,0,1,1,2.17l-.43,5.57s3,2.11,11.15,3.71c0,0-1.73-9.84,3.51-12.33a2.47,2.47,0,0,1,3.5,1.94c.25,1.91,1.18,4.2,4.22,4.44a.59.59,0,0,1,.54.58l-.15,6.3,4.18.93a17,17,0,0,1,2.23-5.13,1.78,1.78,0,0,1,3.21,1.08l.14,4.52,5.57.46s-.84-5.55,3.73-7.2a24.18,24.18,0,0,0,3.27-1.4c1.2-.64,2.77-1.51,4.31-2.45a1.24,1.24,0,0,0-.11-2.18c-6.07-2.83-24.14-11.16-32.2-13.68a5.08,5.08,0,0,0-5,1.09c-1.32,1.21-2.31,2.91-.54,4.69a2.71,2.71,0,0,1,.81,2.35c-.14.89-.74,1.77-2.51,1.77,0,0-2.37,1.19-7.11-2.36,0,0-6.85-5.5-7-8.08a9.05,9.05,0,0,0-.24,1.29Z" fill="#8019e6" data-secondary="true"/>
<path d="M413.51,429.73V455.1s23.68,18.35,117.21,16.32c0,0,91.16,1,117.21-17.08V429.73Z" fill="#b3b3b3"/>
<ellipse cx="530.72" cy="429.73" rx="117.21" ry="20.72" fill="#ccc"/>
<polygon points="445.47 643.43 430.3 641.33 430.08 457.36 445.47 457.36 445.47 643.43" fill="#b3b3b3"/>
<path d="M473.62,360.11c-.31,0-1.39-6.44-2.41-14.46s-1.61-14.56-1.3-14.59,1.38,6.43,2.41,14.45S473.92,360.07,473.62,360.11Z" fill="#8019e6" data-secondary="true"/>
<path d="M486.05,359.67c-.31,0-1.06-6.5-1.67-14.56s-.86-14.62-.55-14.64S484.88,337,485.5,345,486.36,359.64,486.05,359.67Z" fill="#8019e6" data-secondary="true"/>
<path d="M496.34,360.36c-.31,0-1.06-6.5-1.67-14.56s-.86-14.62-.55-14.65,1.05,6.5,1.66,14.56S496.64,360.33,496.34,360.36Z" fill="#8019e6" data-secondary="true"/>
<path d="M516.24,358.36c-.31,0-.83-6.53-1.16-14.61s-.34-14.64,0-14.65.82,6.52,1.15,14.6S516.54,358.34,516.24,358.36Z" fill="#8019e6" data-secondary="true"/>
<path d="M542.19,355.87c-.31,0,.08-6.87.86-15.27s1.68-15.18,2-15.16-.08,6.87-.86,15.27S542.49,355.9,542.19,355.87Z" fill="#8019e6" data-secondary="true"/>
<path d="M566.91,358.13c-.31,0,.08-6.87.87-15.27s1.67-15.18,2-15.16-.08,6.87-.87,15.27S567.22,358.16,566.91,358.13Z" fill="#8019e6" data-secondary="true"/>
<path d="M586.5,359.47c-.3,0,.08-6.86.87-15.26s1.67-15.19,2-15.16-.08,6.86-.87,15.27S586.81,359.5,586.5,359.47Z" fill="#8019e6" data-secondary="true"/>
<path d="M531.09,357c-.31,0-.34-10.7-.07-23.88s.74-23.87,1.05-23.86.33,10.7.06,23.88S531.39,357,531.09,357Z" fill="#8019e6" data-secondary="true"/>
<path d="M559.23,304.33l-.08,1.3c-.2,3.73-1.47,6.06-4.09,7.11,3,1.36,4,4.18,3.83,8l-.16,3c-.31,5.61-3.43,8.46-9.15,8.14l-9-.49,2-36.34,8.61.47C557.14,295.83,559.53,298.72,559.23,304.33Zm-12,11-.61,11.16,3.27.18c1.92.11,3-.72,3.16-3.42l.17-3.16c.19-3.38-.85-4.48-3.44-4.62Zm.82-14.8-.53,9.61,2.23.12c2.13.12,3.48-.75,3.64-3.65l.11-2c.15-2.59-.67-3.78-2.7-3.9Z" fill="#1a2e35"/>
<path d="M562.73,304.88c.33-5.81,3.57-9,9.18-8.66s8.49,3.81,8.17,9.62L579,324.74c-.32,5.82-3.56,9-9.17,8.66s-8.49-3.8-8.17-9.62Zm4.65,19.58c-.14,2.6,1,3.65,2.77,3.75s3-.83,3.15-3.42l1.08-19.63c.15-2.59-.94-3.64-2.76-3.74s-3,.82-3.15,3.42Z" fill="#1a2e35"/>
<path d="M587.47,321.87l-5.88-24.69,6,.33,3.45,16.8L596.29,298l5.45.3-8.56,23.9-.66,12-5.71-.31Z" fill="#1a2e35"/>
<path d="M466.84,313.61,475,313l.91,11.76c.46,5.93-2.25,9.56-8,10s-8.95-2.72-9.41-8.66L457,306.8c-.46-5.94,2.24-9.56,8-10s9,2.72,9.42,8.65l.27,3.61-5.51.42-.3-4c-.21-2.65-1.45-3.57-3.3-3.43s-2.95,1.25-2.74,3.9l1.55,20c.2,2.66,1.44,3.52,3.3,3.37s2.94-1.18,2.74-3.83l-.53-6.84-2.65.21Z" fill="#8019e6" data-secondary="true"/>
<path d="M477.49,296.26l5.83-.45,2.87,37.09-5.83.45Z" fill="#8019e6" data-secondary="true"/>
<path d="M502.61,331.63c-.39-.93-.65-1.5-.88-4.52l-.45-5.83c-.27-3.44-1.53-4.62-4.18-4.42l-2,.16,1.17,15.1-5.82.45-2.88-37.09,8.8-.68c6-.47,8.85,2.14,9.3,7.86l.22,2.92c.3,3.81-.73,6.4-3.23,7.81,3,1,4.18,3.73,4.48,7.6l.44,5.72a11,11,0,0,0,1,4.46Zm-8.82-31.3.88,11.39,2.28-.18c2.18-.16,3.43-1.22,3.2-4.19l-.29-3.65c-.2-2.65-1.19-3.75-3.26-3.59Z" fill="#8019e6" data-secondary="true"/>
<path d="M508.85,293.83l5.83-.45,2.46,31.79,9.59-.74.41,5.3-15.42,1.19Z" fill="#8019e6" data-secondary="true"/>
<path d="M523.33,304c0-2.1,1.11-3.3,3.13-3.3s3.13,1.2,3.13,3.3v6.82c0,2.1-1.11,3.3-3.13,3.3s-3.13-1.2-3.13-3.3Zm2.06,7c0,.94.42,1.29,1.07,1.29s1.07-.35,1.07-1.29V303.9c0-.94-.41-1.3-1.07-1.3s-1.07.36-1.07,1.3Z" fill="#1a2e35"/>
<path d="M535.23,314a4.12,4.12,0,0,1-.19-1.62v-2.06c0-1.22-.41-1.66-1.35-1.66H533V314h-2.06V300.88H534c2.14,0,3.06,1,3.06,3v1a2.62,2.62,0,0,1-1.35,2.66c1,.43,1.36,1.42,1.36,2.79v2a3.83,3.83,0,0,0,.23,1.6ZM533,302.75v4h.81c.77,0,1.23-.34,1.23-1.38v-1.3c0-.94-.31-1.35-1-1.35Z" fill="#1a2e35"/>
<path d="M559.22,303l-.07,1.3c-.2,3.74-1.48,6.06-4.09,7.12,3,1.36,4,4.18,3.83,8l-.16,3c-.31,5.61-3.44,8.45-9.15,8.14l-9-.5,2-36.34,8.62.48C557.14,294.5,559.53,297.39,559.22,303Zm-12,11-.61,11.17,3.27.18c1.92.1,3-.72,3.16-3.42l.17-3.17c.19-3.37-.85-4.47-3.44-4.62Zm.82-14.79-.53,9.6,2.23.13c2.13.11,3.48-.75,3.64-3.66l.11-2c.15-2.6-.67-3.79-2.7-3.9Z" fill="#195de6" data-primary="true"/>
<path d="M562.73,303.56c.32-5.82,3.57-9,9.18-8.66s8.49,3.8,8.17,9.62L579,323.41c-.32,5.82-3.57,9-9.17,8.66s-8.49-3.8-8.17-9.61Zm4.65,19.58c-.14,2.59,1,3.64,2.76,3.74s3-.82,3.16-3.42l1.08-19.62c.15-2.6-.94-3.65-2.76-3.75s-3,.82-3.16,3.42Z" fill="#195de6" data-primary="true"/>
<path d="M587.47,320.55l-5.88-24.7,6,.33L591,313l5.27-16.32,5.46.3-8.56,23.9-.67,12.05-5.71-.32Z" fill="#195de6" data-primary="true"/>
<path d="M466.84,312.29l8.16-.64.91,11.76c.46,5.94-2.25,9.56-8,10s-8.95-2.72-9.41-8.65L457,305.47c-.46-5.93,2.24-9.55,8-10s9,2.71,9.41,8.65l.28,3.6-5.51.43-.3-4c-.21-2.64-1.45-3.56-3.31-3.42s-2.94,1.24-2.73,3.89l1.55,20c.2,2.65,1.44,3.51,3.3,3.37s2.94-1.19,2.74-3.84l-.53-6.83-2.65.2Z" fill="#195de6" data-primary="true"/>
<path d="M477.49,294.94l5.83-.45,2.87,37.08-5.83.45Z" fill="#195de6" data-primary="true"/>
<path d="M502.61,330.3c-.39-.93-.65-1.49-.88-4.51l-.45-5.83c-.27-3.45-1.53-4.63-4.18-4.42l-2,.15,1.17,15.1-5.83.46-2.87-37.09,8.8-.68c6-.47,8.85,2.13,9.29,7.86l.23,2.91c.3,3.82-.73,6.4-3.23,7.82,3,1,4.18,3.73,4.48,7.6l.44,5.72a11.1,11.1,0,0,0,1,4.45ZM493.79,299l.88,11.4,2.28-.18c2.17-.17,3.42-1.22,3.2-4.19l-.29-3.66c-.2-2.65-1.19-3.74-3.26-3.58Z" fill="#195de6" data-primary="true"/>
<path d="M508.85,292.51l5.83-.45,2.46,31.79,9.59-.74.41,5.29-15.42,1.2Z" fill="#195de6" data-primary="true"/>
<path d="M523.33,302.7c0-2.1,1.11-3.3,3.13-3.3s3.13,1.2,3.13,3.3v6.82c0,2.1-1.11,3.3-3.13,3.3s-3.13-1.2-3.13-3.3Zm2.06,6.95c0,.94.41,1.3,1.07,1.3s1.07-.36,1.07-1.3v-7.08c0-.94-.41-1.29-1.07-1.29s-1.07.35-1.07,1.29Z" fill="#195de6" data-primary="true"/>
<path d="M535.23,312.67a4.05,4.05,0,0,1-.19-1.61V309c0-1.22-.41-1.67-1.35-1.67H533v5.34h-2.06V299.55H534c2.14,0,3.05,1,3.05,3v1a2.62,2.62,0,0,1-1.34,2.66c1,.43,1.36,1.43,1.36,2.79v2a3.78,3.78,0,0,0,.23,1.59ZM533,301.43v4h.81c.76,0,1.23-.34,1.23-1.39v-1.29c0-.94-.32-1.35-1-1.35Z" fill="#195de6" data-primary="true"/>
<path d="M482.56,352.23h97.32a22.25,22.25,0,0,1,22.25,22.25v57.19a3.48,3.48,0,0,1-3.48,3.48H462.92a3.48,3.48,0,0,1-3.48-3.48V375.35A23.12,23.12,0,0,1,482.56,352.23Z" fill="#8019e6" data-secondary="true"/>
<g opacity="0.2">
<path d="M482.56,352.23h97.32a22.25,22.25,0,0,1,22.25,22.25v57.19a3.48,3.48,0,0,1-3.48,3.48H462.92a3.48,3.48,0,0,1-3.48-3.48V375.35A23.12,23.12,0,0,1,482.56,352.23Z"/>
</g>
<path d="M580.1,406.19c-7.55-1.34-14.41-4.46-21.37-7.22s-14.38-5.22-22.1-5.08c-13.41.24-24.78,8.16-37.85,10.65-14.13,2.69-29.91-1.68-39.18-10.85v13.14c9.27,9.18,25,13.55,39.18,10.85,13.07-2.49,24.44-10.4,37.85-10.64,7.72-.14,15.14,2.32,22.1,5.08s13.82,5.88,21.37,7.21,16.13.6,21.86-3.65V402.54C596.23,406.79,587.65,407.53,580.1,406.19Z" opacity="0.2"/>
<g opacity="0.2">
<path d="M489.22,397.11l-.34.2a2.18,2.18,0,0,0,.32,3.57,2.13,2.13,0,1,0,0-3.77Z"/>
</g>
<g opacity="0.2">
<path d="M528.8,411.53l-.45.28a3.14,3.14,0,0,0,.43,5,3,3,0,1,0,0-5.31Z"/>
</g>
<g opacity="0.2">
<path d="M498,392.72l-.21.13a1.49,1.49,0,0,0,.2,2.39,1.4,1.4,0,1,0,0-2.52Z"/>
</g>
<g opacity="0.2">
<path d="M582.46,398.49l-.33.2a2.19,2.19,0,0,0,.31,3.58,2.14,2.14,0,1,0,0-3.78Z"/>
</g>
<g opacity="0.2">
<path d="M576.9,395.49l-.21.14a1.49,1.49,0,0,0,.2,2.39,1.4,1.4,0,1,0,0-2.53Z"/>
</g>
<path d="M603,436.91H460.3a1.9,1.9,0,0,1-1-.28l-4.23-2.72a1.61,1.61,0,0,1,1-3H606.49a1.61,1.61,0,0,1,1.11,2.88l-3.53,2.71A1.8,1.8,0,0,1,603,436.91Z" fill="#b3b3b3"/>
<path d="M602.19,373.71a16.18,16.18,0,0,0-16.12,2.05c-5.59,4.64-6,12.79-21.87,10.41a8.86,8.86,0,0,1-2.43-.7c-6.55-3.14-9.3-10.15-16-13.13-5.66-2.52-13.45-1.17-17.36,3-2.08,2.21-3.3,5.19-6.35,6.43-4.1,1.66-8.88-.77-12.19-3.37s-6.91-5.69-11.48-5.54c-3.27.11-6.09,1.93-8.26,3.94s-4,4.31-6.59,5.95a17.32,17.32,0,0,1-13.79,1.75c-4.56-1.37-10.21-5-10.21-9.42v-13c.05-5,4.95-9.86,11.05-9.85l119.56-.44c6.86,0,12.4,4.59,12.27,10.22Z" fill="#fff"/>
<path d="M602.12,431.28a2.69,2.69,0,0,1,0-.67c0-.5,0-1.14-.05-1.94,0-1.79,0-4.3-.07-7.48,0-6.58,0-16,0-27.52,0-5.81,0-12.17,0-19,0-3.41,0-6.95,0-10.58,0-1.85.13-3.64-.6-5.26A9.5,9.5,0,0,0,598,354.7a12.71,12.71,0,0,0-5.12-2.13,34.13,34.13,0,0,0-5.86-.23h-12.3l-25.87,0-50-.05-21.81-.05c-1.7,0-3.4,0-5,0a15,15,0,0,0-4.6.9,11.47,11.47,0,0,0-6.47,5.63c-1.25,2.52-.72,5.39-.86,8s0,5.08,0,7.39c0,4.59-.07,8.56-.09,11.83s-.08,5.7-.11,7.48c0,.81,0,1.45-.05,1.95a2.78,2.78,0,0,1-.06.66,2.78,2.78,0,0,1-.06-.66c0-.5,0-1.14-.05-1.95,0-1.78-.06-4.29-.11-7.48s-.06-7.24-.09-11.83c0-2.31,0-4.78-.05-7.39,0-1.31,0-2.66,0-4a9.87,9.87,0,0,1,.87-4.29,12.22,12.22,0,0,1,6.88-6.1,15.58,15.58,0,0,1,4.87-1c1.68-.06,3.34,0,5.05-.05l21.81,0,50,0H587a35.25,35.25,0,0,1,6,.27,13.82,13.82,0,0,1,5.54,2.32,10.76,10.76,0,0,1,3.7,4.59,8.85,8.85,0,0,1,.63,2.87c.05,1,0,1.85,0,2.77,0,3.64-.05,7.17-.08,10.58-.06,6.83-.11,13.19-.16,19-.13,11.56-.24,20.94-.31,27.52-.06,3.19-.11,5.69-.14,7.48,0,.8,0,1.44-.07,1.94A2.94,2.94,0,0,1,602.12,431.28Z" fill="#8019e6" data-secondary="true"/>
<path d="M600.92,432.69a7.29,7.29,0,0,0,.35-.9,3,3,0,0,0-.8-2.56,3.9,3.9,0,0,0-4-1.37c-1.75.32-3.48,1.56-5.25,3.07l-.25.21-.2-.27a12,12,0,0,0-9.13-4.81A11.8,11.8,0,0,0,571,432.35l-.42.81-.4-.81a11.31,11.31,0,0,0-20.28.2l-.47,1-.49-1a13.39,13.39,0,0,0-8.28-6.63,12.85,12.85,0,0,0-10.9,2,13.13,13.13,0,0,0-3.78,4.15l-.55,1-.44-1a12.32,12.32,0,0,0-22.39-.29l-.42.88-.49-.85A13.43,13.43,0,0,0,489,425.24a13.58,13.58,0,0,0-10.42,6.94l-.41.76-.3-.81a10,10,0,0,0-7.21-6.25,9.48,9.48,0,0,0-7.2,1.41,10.48,10.48,0,0,0-3.3,3.43c-.55,1-.73,1.52-.78,1.5a6.17,6.17,0,0,1,.59-1.6,10.2,10.2,0,0,1,3.25-3.68,9.83,9.83,0,0,1,7.56-1.65,10.6,10.6,0,0,1,7.82,6.58l-.71-.05a14.09,14.09,0,0,1,24.69-.52l-.91,0a13.38,13.38,0,0,1,24.34.28l-1,0a14.06,14.06,0,0,1,4.1-4.52A13.89,13.89,0,0,1,541,424.87a14.39,14.39,0,0,1,8.95,7.2h-1a12.29,12.29,0,0,1,22.07-.15h-.82a12.39,12.39,0,0,1,21.12-1.42l-.44-.06c1.81-1.48,3.64-2.75,5.55-3.06a4.31,4.31,0,0,1,4.31,1.64,3.17,3.17,0,0,1,.7,2.8A1.7,1.7,0,0,1,600.92,432.69Z" fill="#999"/>
<path d="M224.28,453.09s-23,1.33-24.88,5.35c0,0-.3,16.95,16,34l-3.21,6.94,0,11.3c7.57-14.68,16-37.17,16-37.17S228.57,457.73,224.28,453.09Z" fill="#195de6" data-primary="true"/>
<g opacity="0.3">
<path d="M223.46,454.58s-8,20.87-3.11,35.9C220.35,490.48,231.39,472,223.46,454.58Z"/>
</g>
<path d="M259.66,481.19S249,460.75,244.55,460.71c0,0-15.57,6.7-24.43,28.57l-7.65-.08S208.4,471.65,188,462c0,0-11.67,21-12.07,20.83s9.78,10.16,26.28,11,40.48-.68,40.48-.68S257.19,487,259.66,481.19Z" fill="#195de6" data-primary="true"/>
<g opacity="0.3">
<path d="M208.5,492.05s-17.27-10-31.21-9C177.29,483,193.46,496.63,208.5,492.05Z"/>
</g>
<g opacity="0.3">
<path d="M258,481.06s-22.33,1.25-34,11.92C224,493,245.31,495.46,258,481.06Z"/>
</g>
<polygon points="282.18 492.06 281.43 607.84 149.53 608.03 149.53 492.29 282.18 492.06" fill="#8019e6" data-secondary="true"/>
<path d="M199.44,492.25a3,3,0,0,1-.45.6l-1.4,1.61-5.23,5.82c-4.45,4.89-10.63,11.62-17.48,19s-13.1,14.07-17.65,18.87l-5.41,5.66-1.5,1.51c-.35.34-.54.51-.56.49a3.17,3.17,0,0,1,.45-.59c.38-.43.84-1,1.39-1.61l5.24-5.82c4.44-4.9,10.62-11.62,17.48-19s13.1-14.07,17.65-18.87l5.41-5.66,1.5-1.51C199.23,492.4,199.42,492.23,199.44,492.25Z" fill="#fff"/>
<path d="M174.36,492.06a5.25,5.25,0,0,1-.88,1.16c-.6.71-1.49,1.72-2.61,3-2.22,2.47-5.35,5.84-8.81,9.56s-6.57,7.1-8.87,9.51c-1.15,1.2-2.09,2.17-2.75,2.82a5.36,5.36,0,0,1-1.09,1,5.53,5.53,0,0,1,.87-1.17c.6-.71,1.48-1.73,2.57-3,2.21-2.49,5.27-5.92,8.71-9.66s6.66-7,9-9.41c1.17-1.19,2.12-2.14,2.79-2.79A5.82,5.82,0,0,1,174.36,492.06Z" fill="#fff"/>
<path d="M225.73,492.25a7.34,7.34,0,0,1-.72.88l-2.16,2.44-8,8.86-26.78,29-26.94,28.89-8.23,8.7-2.26,2.34a7.62,7.62,0,0,1-.83.78,6.58,6.58,0,0,1,.72-.89l2.16-2.43,8.05-8.86,26.78-29c10.49-11.25,20-21.44,26.94-28.88l8.22-8.7L224.9,493A5.66,5.66,0,0,1,225.73,492.25Z" fill="#fff"/>
<path d="M252.14,492.25a11.73,11.73,0,0,0-1.11,1.09l-3,3.29L237.06,508.9c-9.21,10.46-21.88,24.84-35.86,40.73L165.36,590.4l-10.91,12.31c-1.26,1.41-2.27,2.52-3,3.32l-.79.86c-.18.19-.28.28-.29.27a1.47,1.47,0,0,1,.23-.32l.74-.91,2.88-3.41L165,590c9.08-10.5,21.68-25,35.67-40.91s26.72-30.28,36-40.59c4.65-5.15,8.45-9.29,11.13-12.11S252,492.12,252.14,492.25Z" fill="#fff"/>
<path d="M280.86,492.07a12.38,12.38,0,0,0-1.12,1.09l-3.07,3.31c-2.67,2.95-6.46,7.16-11.12,12.33l-36.44,40.95-36.41,41L181.62,603.1l-3,3.34-.81.86c-.18.19-.28.28-.29.27a2.47,2.47,0,0,1,.23-.32l.75-.91,2.94-3.43,10.9-12.54c9.23-10.56,22-25.11,36.25-41.12s27.14-30.44,36.6-40.8c4.73-5.19,8.59-9.35,11.3-12.18S280.76,491.93,280.86,492.07Z" fill="#fff"/>
<path d="M282.18,526.6s-.08,0-.21.17-.34.32-.59.58c-.5.51-1.23,1.29-2.16,2.31-1.85,2-4.5,5-7.76,8.68l-25.34,28.9L220.8,596.16l-7.72,8.73L211,607.24a8.29,8.29,0,0,1-.78.79,5.63,5.63,0,0,1,.66-.89l2-2.44,7.54-8.89c6.39-7.47,15.27-17.76,25.15-29.07s18.89-21.48,25.51-28.76S282,526.32,282.18,526.6Z" fill="#fff"/>
<path d="M281.75,558.51c.16.14-9.54,11.36-21.65,25.06S238,608.26,237.88,608.12s9.53-11.35,21.65-25S281.59,558.37,281.75,558.51Z" fill="#fff"/>
<polyline points="197.69 492.07 207.55 492.06 207.75 608.03 197.89 608.04" fill="#195de6" data-primary="true"/>
<rect x="149.76" y="545.45" width="132.19" height="7.85" fill="#195de6" data-primary="true"/>
<polygon points="269.72 492.04 269.79 607.86 262.8 607.87 262.6 492.05 269.72 492.04" fill="#195de6" data-primary="true"/>
<g opacity="0.3">
<polygon points="247.33 492.12 247.53 608.03 281.43 607.84 282.18 492.06 247.33 492.12"/>
</g>
<rect x="114.99" y="607.33" width="201.55" height="46.76" fill="#195de6" data-primary="true"/>
<rect x="114.99" y="629.42" width="201.55" height="6.99" fill="#fff"/>
<rect x="258.86" y="607.3" width="5.94" height="46.79" fill="#fff"/>
<rect x="149.02" y="607.3" width="5.94" height="46.79" fill="#fff"/>
<g opacity="0.3">
<rect x="213.31" y="607.33" width="103.24" height="46.76"/>
</g>
</svg>